<?xml version="1.0" encoding="UTF-8" standalone="no"?><!DOCTYPE svg PUBLIC "-//W3C//DTD SVG 1.1//EN" "http://www.w3.org/Graphics/SVG/1.1/DTD/svg11.dtd"><svg width="100%" height="100%" viewBox="0 0 500 208" version="1.1" xmlns="http://www.w3.org/2000/svg" xmlns:xlink="http://www.w3.org/1999/xlink" xml:space="preserve" style="fill-rule:evenodd;clip-rule:evenodd;stroke-linejoin:round;stroke-miterlimit:1.41421;"><rect id="画板1" x="0" y="0" width="499.979" height="207.568" style="fill:none;"/><g><path d="M346.228,85.921l-35.91,0l0,64.26l36.81,0l0,-10.62l-23.85,0l0,-17.28l21.6,0l0,-10.62l-21.6,0l0,-15.12l22.95,0l0,-10.62Zm7.38,64.26l35.91,0l0,-10.62l-22.95,0l0,-53.64l-12.96,0l0,64.26Zm41.67,0l35.91,0l0,-10.62l-22.95,0l0,-53.64l-12.96,0l0,64.26Zm53.28,-32.13c0,-4.32 0.105,-7.98 0.315,-10.98c0.21,-3 0.63,-5.46 1.26,-7.38c0.63,-1.92 1.53,-3.315 2.7,-4.185c1.17,-0.87 2.715,-1.305 4.635,-1.305c1.92,0 3.465,0.435 4.635,1.305c1.17,0.87 2.07,2.265 2.7,4.185c0.63,1.92 1.05,4.38 1.26,7.38c0.21,3 0.315,6.66 0.315,10.98c0,4.32 -0.105,7.995 -0.315,11.025c-0.21,3.03 -0.63,5.49 -1.26,7.38c-0.63,1.89 -1.53,3.27 -2.7,4.14c-1.17,0.87 -2.715,1.305 -4.635,1.305c-1.92,0 -3.465,-0.435 -4.635,-1.305c-1.17,-0.87 -2.07,-2.25 -2.7,-4.14c-0.63,-1.89 -1.05,-4.35 -1.26,-7.38c-0.21,-3.03 -0.315,-6.705 -0.315,-11.025Zm-12.96,0c0,4.92 0.225,9.42 0.675,13.5c0.45,4.08 1.44,7.59 2.97,10.53c1.53,2.94 3.735,5.19 6.615,6.75c2.88,1.56 6.75,2.34 11.61,2.34c4.86,0 8.73,-0.78 11.61,-2.34c2.88,-1.56 5.085,-3.81 6.615,-6.75c1.53,-2.94 2.52,-6.45 2.97,-10.53c0.45,-4.08 0.675,-8.58 0.675,-13.5c0,-4.86 -0.225,-9.345 -0.675,-13.455c-0.45,-4.11 -1.44,-7.635 -2.97,-10.575c-1.53,-2.94 -3.735,-5.235 -6.615,-6.885c-2.88,-1.65 -6.75,-2.475 -11.61,-2.475c-4.86,0 -8.73,0.825 -11.61,2.475c-2.88,1.65 -5.085,3.945 -6.615,6.885c-1.53,2.94 -2.52,6.465 -2.97,10.575c-0.45,4.11 -0.675,8.595 -0.675,13.455Z" style="fill-rule:nonzero;"/><path d="M298.579,135.938l-0.475,1.357l-0.665,1.476l-0.855,1.597l-1.044,1.716l-1.312,1.771l-1.229,1.47l-1.145,1.17l-1.062,0.87l-0.837,0.823l-1.229,0.882l-1.62,0.942l-2.012,1.002l-1.431,0.463l-1.442,0.33l-1.454,0.198l-1.466,0.066l-4.202,-0.216l-1.051,-0.126l-0.262,-0.068l-0.066,-0.035l-0.022,-0.035l-1.858,-0.445l-1.632,-0.516l-1.407,-0.588l-1.181,-0.66l-1.225,-0.566l-1.232,-0.712l-1.237,-0.86l-1.244,-1.007l-1.249,-1.154l-1.255,-1.3l-2.529,-3.043l-1.626,-3.145l-1.318,-2.953l-1.009,-2.761l-0.7,-2.568l-0.54,-3.409l-0.386,-3.073l-0.232,-2.737l-0.077,-2.4l0.066,-1.897l0.195,-2.088l0.327,-2.281l0.457,-2.473l1.549,-4.621l1.371,-3.685l1.193,-2.748l1.015,-1.813l1.68,-3.379l2.19,-4.087l5.911,-10.299l2.179,-3.721l2.118,-3.961l2.06,-4.201l2,-4.441l0.824,-1.775l0.713,-1.796l0.604,-1.817l0.494,-1.838l0.385,-1.859l0.274,-1.88l0.165,-1.901l0.055,-1.922l0,-2.592l-0.19,-2.113l-0.386,-2.281l-0.493,-2.136l-0.599,-1.993l-0.706,-1.848l-1.615,-3.241l-1.044,-1.656l-0.772,-1.051l-0.985,-1.134l-2.612,-2.521l-1.905,-1.206l-1.917,-1.074l-1.929,-0.942l-1.941,-0.811l-1.852,-0.504l-1.946,-0.36l-2.042,-0.216l-2.137,-0.072l-0.854,0.096l-0.214,0.048l-0.053,0.024l-0.018,0.024l-1.526,0.12l-1.632,0.36l-1.739,0.6l-1.846,0.841l-1.193,0.582l-1.3,0.834l-1.406,1.086l-1.514,1.339l-2.279,3l-0.641,1.051l-0.308,0.75l-0.535,0.863l-0.463,1.003l-0.391,1.145l-0.321,1.286l-0.427,2.995l-0.143,3.559l0,0.768l0.048,0.648l0.142,1.08l0.57,3.457l1.068,3.385l0.268,0.954l0.066,0.293l0.023,0.169l0,0.097l-0.113,-0.079l-0.149,-0.234l-0.403,-0.936l-0.646,-1.001l-0.559,-1.177l-0.473,-1.355l-0.388,-1.532l-0.301,-1.709l-0.215,-1.886l-0.129,-2.063l-0.043,-2.24l0,-1.345l0.57,-3.889l0.213,-0.972l0.089,-0.243l0.04,-0.061l0.038,-0.02l0.646,-1.512l0.754,-1.465l0.861,-1.416l0.967,-1.368l2.612,-2.809l1.056,-0.954l0.891,-0.655l2.611,-1.56l1.235,-0.582l1.187,-0.45l0.093,-0.123l0.281,-0.129l1.121,-0.276l4.487,-0.625l3.419,0l0.855,0.12l1.424,0.361l2.005,0.493l1.883,0.569l1.761,0.644l1.64,0.718l1.518,0.794l1.396,0.869l1.275,0.943l1.152,1.019l0.938,0.726l1.057,1.075l1.175,1.422l1.294,1.77l2.065,4.082l0.517,1.176l0.129,0.372l0.043,0.228l0.522,2.029l0.475,2.436l0.427,2.845l0.38,3.253l-0.285,4.417l-0.125,2.046l-0.326,2.347l-0.528,2.647l-0.73,2.947l-2.499,6.001l-2.321,5.089l-2.142,4.178l-1.965,3.264l-6.386,10.467l-1.965,3.361l-1.145,2.113l-1.698,3.21l-1.626,3.439l-1.555,3.667l-1.484,3.895l-0.581,2.713l-0.416,2.569l-0.249,2.424l-0.083,2.281l0.261,3.217l0.113,0.996l0.1,0.588l0.079,1.187l0.236,1.304l0.393,1.421l0.551,1.538l0.708,1.654l0.865,1.772l2.202,3.895l3.015,3.385l1.098,1.099l0.825,0.702l2.03,1.488l2.053,1.297l2.078,1.104l2.101,0.912l1.673,0.588l1.745,0.42l1.816,0.252l1.888,0.084l2.048,-0.414l1.822,-0.474l1.596,-0.534l1.371,-0.594l2.517,-1.585l1.947,-1.584l1.869,-1.994l1.621,-2.093l1.371,-2.192l1.121,-2.291l0.873,-2.39l0.623,-2.489l0.374,-2.589l0.125,-2.687l-0.475,-4.081l-0.238,-1.284l-0.237,-0.78l-0.202,-1.183l-0.463,-1.434l-0.724,-1.687l-0.985,-1.938l-0.712,-1.427l-0.831,-1.352l-0.95,-1.277l-1.068,-1.201l-1.187,-1.127l-1.306,-1.052l-1.425,-0.977l-1.543,-0.902l-0.587,-0.342l-0.908,-0.306l-1.229,-0.27l-1.549,-0.234l-3.253,0.36l-1.685,0.312l-1.959,0.817l-1.745,1.008l-1.531,1.2l-1.318,1.393l-0.641,0.594l-0.736,1.062l-0.831,1.53l-0.926,1.999l-0.35,0.738l-0.338,1.254l-0.327,1.771l-0.314,2.286l0.077,1.483l0.232,1.47l0.385,1.459l0.54,1.446l0.401,0.878l0.537,0.76l0.674,0.644l0.81,0.527l0.947,0.409l1.083,0.293l1.22,0.175l1.356,0.059l0.665,-0.096l0.86,-0.186l0.92,-0.558l0.979,-0.93l1.039,-1.303l0.689,-2.496l0.219,-0.637l0.079,-0.165l0.031,-0.044l0.027,-0.019l0.38,0.108l0.617,0.324l1.947,1.297l0.581,0.852l0.416,0.78l0.249,0.708l0.083,0.637l0,1.248l-0.047,0.72l-0.06,0.18l-0.083,0.06l-0.113,0.888l-0.338,0.985l-0.564,1.08l-0.789,1.176l-1.484,1.261l-0.786,0.495l-0.816,0.405l-0.846,0.315l-0.876,0.225l-0.905,0.135l-0.935,0.045l-1.139,-0.096l-1.383,-0.162l-1.442,-0.486l-1.502,-0.81l-1.561,-1.135l-1.781,-2.208l-1.353,-2.017l-0.576,-1.362l-0.492,-1.639l-0.41,-1.914l-0.326,-2.191l0.166,-2.736l0.499,-3.025l0.249,-0.774l0.558,-1.363l2.042,-4.489l1.288,-1.77l1.299,-1.519l1.312,-1.266l1.324,-1.014l0.779,-0.631l0.888,-0.546l0.999,-0.462l1.108,-0.378l1.219,-0.294l1.328,-0.21l2.985,-0.168l1.045,0.192l1.792,0.192l2.006,0.576l2.22,0.96l2.433,1.345l2.826,2.688l0.789,0.913l0.374,0.624l0.457,0.429l0.469,0.591l0.973,1.669l1.021,2.316l1.068,2.965l0.416,1.374l0.392,1.915l0.368,2.454l0.344,2.995l-0.119,3.451l-0.356,3.247l-0.593,3.043l-0.831,2.838Z" style="fill-opacity:0.394312;fill-rule:nonzero;"/><path d="M39.469,117.916c0,-3.037 -2.463,-5.5 -5.5,-5.5c-3.038,0 -5.5,2.463 -5.5,5.5c0,3.038 2.462,5.5 5.5,5.5c3.037,0 5.5,-2.462 5.5,-5.5Z" style="fill-rule:nonzero;"/><path d="M249.978,117.916c0,-3.037 -2.462,-5.5 -5.5,-5.5c-3.038,0 -5.5,2.463 -5.5,5.5c0,3.038 2.462,5.5 5.5,5.5c3.038,0 5.5,-2.462 5.5,-5.5Z" style="fill-rule:nonzero;"/><path d="M221.746,117.916c0,-3.037 -2.462,-5.5 -5.5,-5.5c-3.037,0 -5.5,2.463 -5.5,5.5c0,3.038 2.463,5.5 5.5,5.5c3.038,0 5.5,-2.462 5.5,-5.5Z" style="fill-rule:nonzero;"/><path d="M176.773,75.894c0,-3.037 -2.463,-5.5 -5.5,-5.5c-3.038,0 -5.5,2.463 -5.5,5.5c0,3.038 2.462,5.5 5.5,5.5c3.037,0 5.5,-2.462 5.5,-5.5Z" style="fill-rule:nonzero;"/><path d="M85.489,75.894c0,-3.037 -2.462,-5.5 -5.5,-5.5c-3.038,0 -5.5,2.463 -5.5,5.5c0,3.038 2.462,5.5 5.5,5.5c3.038,0 5.5,-2.462 5.5,-5.5Z" style="fill-rule:nonzero;"/><path d="M176.25,159.938c0,-3.038 -2.463,-5.5 -5.5,-5.5c-3.038,0 -5.5,2.462 -5.5,5.5c0,3.037 2.462,5.5 5.5,5.5c3.037,0 5.5,-2.463 5.5,-5.5Z" style="fill-rule:nonzero;"/><path d="M130.869,117.916c0,-3.037 -2.462,-5.5 -5.5,-5.5c-3.037,0 -5.5,2.463 -5.5,5.5c0,3.038 2.463,5.5 5.5,5.5c3.038,0 5.5,-2.462 5.5,-5.5Z" style="fill-rule:nonzero;"/><path d="M85.489,159.938c0,-3.038 -2.462,-5.5 -5.5,-5.5c-3.038,0 -5.5,2.462 -5.5,5.5c0,3.037 2.462,5.5 5.5,5.5c3.038,0 5.5,-2.463 5.5,-5.5Z" style="fill-rule:nonzero;"/><path d="M11.761,117.916c0,-3.037 -2.463,-5.5 -5.5,-5.5c-3.038,0 -5.5,2.463 -5.5,5.5c0,3.038 2.462,5.5 5.5,5.5c3.037,0 5.5,-2.462 5.5,-5.5Z" style="fill-rule:nonzero;"/><path d="M125.741,116.808l46.02,42.022l-2.023,2.215l-46.02,-42.021l2.023,-2.216Z" style="fill-rule:nonzero;"/><path d="M217.781,119.024l-46.02,42.021l-2.023,-2.215l46.02,-42.022l2.023,2.216Z" style="fill-rule:nonzero;"/><rect x="124.729" y="116.216" width="119.749" height="3.4" style="fill-opacity:0.279363;fill-rule:nonzero;"/><path d="M127.021,119.024l-46.021,42.021l-2.022,-2.215l46.02,-42.022l2.023,2.216Z" style="fill-rule:nonzero;"/><path d="M34.98,116.808l46.02,42.022l-2.022,2.215l-46.021,-42.021l2.023,-2.216Z" style="fill-rule:nonzero;"/><rect x="6.261" y="116.216" width="119.749" height="3.4" style="fill-opacity:0.279363;fill-rule:nonzero;"/><path d="M123.718,116.808l46.02,-42.021l2.023,2.215l-46.02,42.022l-2.023,-2.216Z" style="fill-rule:nonzero;"/><path d="M215.758,119.024l-46.02,-42.022l2.023,-2.215l46.02,42.021l-2.023,2.216Z" style="fill-rule:nonzero;"/><rect x="124.729" y="116.216" width="119.749" height="3.4" style="fill-opacity:0.279363;fill-rule:nonzero;"/><path d="M124.998,119.024l-46.02,-42.022l2.022,-2.215l46.021,42.021l-2.023,2.216Z" style="fill-rule:nonzero;"/><path d="M32.957,116.808l46.021,-42.021l2.022,2.215l-46.02,42.022l-2.023,-2.216Z" style="fill-rule:nonzero;"/><rect x="6.261" y="116.216" width="119.749" height="3.4" style="fill-opacity:0.279363;fill-rule:nonzero;"/></g></svg>