<?xml version="1.0" encoding="UTF-8" standalone="yes"?>
<!DOCTYPE svg PUBLIC "-//W3C//DTD SVG 1.1//EN" "http://www.w3.org/Graphics/SVG/1.1/DTD/svg11.dtd">

<svg width="500" height="500" viewBox="0 0 500 500" xmlns="http://www.w3.org/2000/svg" xmlns:xlink="http://www.w3.org/1999/xlink" version="1.1" baseProfile="full">
    <g transform="scale(1,-1) translate(0,-500)">
        <path d="M 284.365281 249.123971 L 284.365281 353.835742 C 268.514417 348.071791 266.112770 347.111133 259.388161 347.111133 C 251.222565 347.111133 246.419272 348.071791 223.843799 355.276730 C 202.709313 362.001339 181.574827 365.843973 162.841987 365.843973 C 130.659929 365.843973 96.556555 355.276730 72.059764 336.543890 C 28.830134 304.842161 4.333344 247.682984 4.333344 180.436892 C 4.333344 127.120349 19.703879 83.410389 49.484291 51.228331 C 77.823715 20.967590 116.730382 4.156067 159.960012 4.156067 C 202.228984 4.156067 238.734005 17.124956 263.230795 40.661088 C 280.042318 56.992282 292.050549 76.205451 302.617791 104.064546 L 288.688244 110.308826 C 269.955404 56.031623 226.725774 23.369236 173.409230 23.369236 C 100.879518 23.369236 52.846595 89.174340 52.846595 189.563148 C 52.846595 236.155082 62.453180 276.983066 80.705690 306.283149 C 97.997542 335.102902 130.179600 352.875084 164.763304 352.875084 C 195.984704 352.875084 225.284786 338.465207 244.978285 313.968417 C 257.947174 296.676565 264.671783 278.904383 268.994746 249.123971 Z" transform="scale(0.500000,0.500000) translate(372.000000,369.000000)" fill="#000000" opacity="1.000000"></path>
        <path d="M 225.536354 23.909808 L 222.590524 23.852673 L 219.644694 23.795538 L 216.698865 23.738404 L 213.753035 23.681269 L 210.807206 23.624135 L 207.861376 23.567000 L 204.915547 23.509866 L 201.969717 23.452731 L 199.023887 23.395596 L 196.078052 23.338461 L 193.132235 23.281326 L 190.186393 23.224191 L 187.240575 23.167057 L 184.294734 23.109922 L 181.348916 23.052788 L 178.403075 22.995653 L 175.457257 22.938519 L 172.511416 22.881384 L 169.565597 22.824250 L 166.619757 22.767115 L 163.673938 22.709980 L 160.728098 22.652846 L 157.782279 22.595711 L 154.836439 22.538577 L 151.890620 22.481442 L 148.944780 22.424307 L 145.998960 22.367173 L 143.053121 22.310038 L 140.107301 22.252904 L 137.161462 22.195769 L 134.301123 22.234028 L 131.440766 22.272288 L 128.580423 22.310548 L 125.720075 22.348807 L 122.859723 22.387068 L 119.999383 22.425327 L 117.139031 22.463588 L 114.454034 22.529054 L 111.769026 22.594521 L 109.084029 22.659987 L 106.399028 22.725455 L 103.714023 22.790921 L 101.029029 22.856388 L 98.344025 22.921854 L 95.659024 22.987322 L 92.974027 23.052788 L 90.289019 23.118255 L 87.604021 23.183721 L 84.919021 23.249189 L 82.234017 23.314655 L 79.549022 23.380122 L 76.864018 23.445588 L 74.179017 23.511056 L 71.494019 23.576522 L 68.809013 23.641989 L 65.948670 23.680248 L 63.088319 23.718509 L 60.227971 23.756768 L 57.367626 23.795029 L 54.507273 23.833288 L 51.646930 23.871547 L 48.786580 23.909808 L 48.786580 24.090233 L 51.646928 24.128492 L 54.507276 24.166751 L 57.367624 24.205013 L 60.227971 24.243272 L 63.088319 24.281531 L 65.948667 24.319791 L 68.809015 24.358052 L 71.494016 24.423517 L 74.179017 24.488984 L 76.864018 24.554452 L 79.549019 24.619919 L 82.234020 24.685384 L 84.919021 24.750851 L 87.604021 24.816319 L 90.289022 24.881786 L 92.974023 24.947251 L 95.659024 25.012718 L 98.344025 25.078186 L 101.029026 25.143653 L 103.714027 25.209118 L 106.399028 25.274585 L 109.084029 25.340053 L 111.769030 25.405520 L 114.454030 25.470985 L 117.139031 25.536452 L 119.999379 25.574712 L 122.859727 25.612973 L 125.720075 25.651233 L 128.580423 25.689492 L 131.440771 25.727751 L 134.301119 25.766013 L 137.161467 25.804272 L 140.107296 25.747137 L 143.053126 25.690003 L 145.998955 25.632868 L 148.944785 25.575734 L 151.890614 25.518599 L 154.836444 25.461465 L 157.782274 25.404330 L 160.728103 25.347195 L 163.673933 25.290061 L 166.619762 25.232924 L 169.565592 25.175789 L 172.511421 25.118655 L 175.457251 25.061520 L 178.403081 25.004386 L 181.348910 24.947251 L 184.294740 24.890117 L 187.240569 24.832982 L 190.186399 24.775847 L 193.132228 24.718713 L 196.078058 24.661578 L 199.023887 24.604444 L 201.969717 24.547309 L 204.915547 24.490175 L 207.861376 24.433040 L 210.807206 24.375905 L 213.753035 24.318771 L 216.698865 24.261636 L 219.644694 24.204502 L 222.590524 24.147367 L 225.536354 24.090233 M 269.723797 41.952321 L 266.777967 41.895186 L 263.832138 41.838052 L 260.886308 41.780917 L 257.940479 41.723782 L 254.994649 41.666648 L 252.048820 41.609513 L 249.102990 41.552379 L 246.157160 41.495244 L 243.211331 41.438110 L 240.265501 41.380975 L 237.319672 41.323840 L 234.373842 41.266706 L 231.428013 41.209571 L 228.482183 41.152437 L 225.536354 41.095302 L 222.590524 41.038168 L 219.644694 40.981033 L 216.698865 40.923898 L 213.753035 40.866764 L 210.807206 40.809629 L 207.861376 40.752495 L 204.915547 40.695360 L 201.969717 40.638226 L 199.023887 40.581091 L 196.078058 40.523956 L 193.132228 40.466822 L 190.186399 40.409687 L 187.240569 40.352553 L 184.294740 40.295418 L 181.348910 40.238284 L 178.488562 40.276543 L 175.628214 40.314802 L 172.767866 40.353061 L 169.907519 40.391321 L 167.047171 40.429582 L 164.186823 40.467842 L 161.326475 40.506101 L 158.641474 40.571568 L 155.956473 40.637036 L 153.271472 40.702500 L 150.586471 40.767968 L 147.901470 40.833435 L 145.216469 40.898903 L 142.531468 40.964367 L 139.846468 41.029835 L 137.161467 41.095302 L 134.476466 41.160770 L 131.791465 41.226234 L 129.106464 41.291702 L 126.421463 41.357169 L 123.736462 41.422636 L 121.051461 41.488101 L 118.366460 41.553569 L 115.681459 41.619036 L 112.996459 41.684503 L 110.136111 41.722763 L 107.275763 41.761022 L 104.415415 41.799281 L 101.555067 41.837543 L 98.694719 41.875802 L 95.834371 41.914061 L 92.974023 41.952321 L 92.974023 42.132746 L 95.834371 42.171007 L 98.694719 42.209267 L 101.555067 42.247526 L 104.415415 42.285785 L 107.275763 42.324044 L 110.136111 42.362306 L 112.996459 42.400565 L 115.681459 42.466033 L 118.366460 42.531498 L 121.051461 42.596965 L 123.736462 42.662432 L 126.421463 42.727900 L 129.106464 42.793365 L 131.791465 42.858832 L 134.476466 42.924299 L 137.161467 42.989767 L 139.846468 43.055232 L 142.531468 43.120699 L 145.216469 43.186166 L 147.901470 43.251634 L 150.586471 43.317099 L 153.271472 43.382566 L 155.956473 43.448033 L 158.641474 43.513501 L 161.326475 43.578966 L 164.186823 43.617227 L 167.047171 43.655487 L 169.907519 43.693746 L 172.767866 43.732005 L 175.628214 43.770267 L 178.488562 43.808526 L 181.348910 43.846785 L 184.294740 43.789651 L 187.240569 43.732516 L 190.186399 43.675382 L 193.132228 43.618247 L 196.078058 43.561112 L 199.023887 43.503978 L 201.969717 43.446843 L 204.915547 43.389709 L 207.861376 43.332574 L 210.807206 43.275440 L 213.753035 43.218305 L 216.698865 43.161170 L 219.644694 43.104036 L 222.590524 43.046901 L 225.536354 42.989767 L 228.482183 42.932632 L 231.428013 42.875498 L 234.373842 42.818363 L 237.319672 42.761228 L 240.265501 42.704094 L 243.211331 42.646959 L 246.157160 42.589822 L 249.102990 42.532688 L 252.048820 42.475553 L 254.994649 42.418419 L 257.940479 42.361284 L 260.886308 42.304149 L 263.832138 42.247015 L 266.777967 42.189880 L 269.723797 42.132746 M 181.348906 5.867294 L 178.403077 5.810159 L 175.457247 5.753024 L 172.511417 5.695890 L 169.565588 5.638755 L 166.619758 5.581620 L 163.673928 5.524486 L 160.728098 5.467351 L 157.782279 5.410217 L 154.836449 5.353082 L 151.890619 5.295947 L 148.944789 5.238813 L 145.998959 5.181678 L 143.053130 5.124544 L 140.107300 5.067409 L 137.161470 5.010274 L 134.215640 4.953140 L 131.269810 4.896005 L 128.323980 4.838870 L 125.378151 4.781736 L 122.432321 4.724601 L 119.486491 4.667466 L 116.540661 4.610332 L 113.594831 4.553197 L 110.649002 4.496063 L 107.703172 4.438928 L 104.757342 4.381793 L 101.811512 4.324659 L 98.865683 4.267524 L 95.919853 4.210389 L 92.974023 4.153255 L 90.113677 4.191515 L 87.253330 4.229774 L 84.392978 4.268034 L 81.532631 4.306294 L 78.672284 4.344554 L 75.811938 4.382814 L 72.951586 4.421073 L 70.266589 4.486540 L 67.581586 4.552007 L 64.896584 4.617474 L 62.211582 4.682940 L 59.526585 4.748407 L 56.841583 4.813874 L 54.156581 4.879341 L 51.471579 4.944807 L 48.786581 5.010274 L 46.101579 5.075741 L 43.416577 5.141208 L 40.731576 5.206674 L 38.046577 5.272141 L 35.361576 5.337608 L 32.676574 5.403075 L 29.991572 5.468541 L 27.306574 5.534008 L 24.621572 5.599475 L 21.761225 5.637735 L 18.900875 5.675995 L 16.040528 5.714254 L 13.180180 5.752514 L 10.319833 5.790774 L 7.459484 5.829034 L 4.599136 5.867294 L 4.599136 6.047719 L 7.459484 6.085979 L 10.319832 6.124238 L 13.180181 6.162498 L 16.040527 6.200758 L 18.900876 6.239018 L 21.761224 6.277277 L 24.621572 6.315537 L 27.306573 6.381004 L 29.991573 6.446471 L 32.676573 6.511938 L 35.361576 6.577404 L 38.046577 6.642871 L 40.731577 6.708338 L 43.416577 6.773805 L 46.101580 6.839271 L 48.786580 6.904738 L 51.471580 6.970205 L 54.156580 7.035672 L 56.841584 7.101138 L 59.526584 7.166605 L 62.211584 7.232072 L 64.896583 7.297539 L 67.581588 7.363005 L 70.266588 7.428472 L 72.951587 7.493939 L 75.811937 7.532199 L 78.672286 7.570459 L 81.532629 7.608718 L 84.392978 7.646978 L 87.253327 7.685238 L 90.113677 7.723498 L 92.974020 7.761758 L 95.919855 7.704623 L 98.865685 7.647488 L 101.811515 7.590354 L 104.757344 7.533219 L 107.703174 7.476085 L 110.649003 7.418950 L 113.594832 7.361815 L 116.540662 7.304681 L 119.486491 7.247546 L 122.432321 7.190411 L 125.378151 7.133277 L 128.323979 7.076142 L 131.269809 7.019007 L 134.215638 6.961873 L 137.161468 6.904738 L 140.107297 6.847604 L 143.053127 6.790469 L 145.998955 6.733334 L 148.944785 6.676200 L 151.890614 6.619065 L 154.836444 6.561930 L 157.782273 6.504796 L 160.728103 6.447661 L 163.673931 6.390526 L 166.619761 6.333392 L 169.565590 6.276257 L 172.511419 6.219123 L 175.457249 6.161988 L 178.403078 6.104853 L 181.348907 6.047719" transform="scale(0.500000,0.500000) translate(417.000000,530.000000)" fill="#000000" opacity="1.000000"></path>
        <path d="M 223.996259 603.577920 L 223.996259 100.730847 L 222.180557 79.172946 L 216.733434 60.155941 L 207.654863 43.679765 L 194.944817 29.744350 L 178.708120 18.662447 L 159.049561 10.746832 L 135.969059 5.997480 L 109.466535 4.414368 L 87.346184 5.841123 L 67.355889 10.121403 L 49.495579 17.255229 L 33.765181 27.242623 L 20.932922 39.458101 L 11.767057 53.276202 L 6.267559 68.696980 L 4.434398 85.720487 L 6.267559 100.007721 L 11.767057 113.474025 L 20.932922 126.119445 L 33.765181 137.944032 L 48.936901 147.931427 L 65.121174 155.065254 L 82.318062 159.345534 L 100.527630 160.772289 L 124.341478 158.778741 L 148.294908 152.798076 L 172.388006 142.830264 L 196.620861 128.875273 L 197.738225 603.577920 Z" transform="scale(0.500000,0.500000) translate(337.000000,165.000000)" fill="#000000" opacity="1.000000"></path>
        <path d="M 30.567772 4.115622 L 38.611160 27.365079 L 47.140305 48.110942 L 56.155216 66.353226 L 65.655902 82.091945 L 75.642373 95.327111 L 86.114637 106.058739 L 97.072705 114.286842 L 108.516584 120.011435 L 119.727040 122.586959 L 122.952330 121.677590 L 124.591020 119.303471 L 137.959419 66.421100 L 142.197281 61.182976 L 152.778514 54.630751 L 165.272061 49.589951 L 177.877519 47.398410 L 190.594933 48.056126 L 203.424350 51.563095 L 215.151524 57.220716 L 225.161501 64.559775 L 233.454326 73.580309 L 240.030038 84.282350 L 244.473046 95.844176 L 246.367730 107.444075 L 245.714099 119.082092 L 242.512160 130.758270 L 235.038678 145.067686 L 224.485046 156.989874 L 210.851219 166.524874 L 194.137153 173.672727 L 175.730032 177.950896 L 157.017034 178.876806 L 137.998093 176.450457 L 118.673144 170.671851 L 99.271722 161.278057 L 81.222021 148.464865 L 64.523972 132.232219 L 49.177508 112.580063 L 35.391283 89.861175 L 23.373904 64.428280 L 13.125334 36.281279 L 4.645535 5.420074 Z" transform="scale(0.500000,0.500000) translate(530.000000,763.000000)" fill="#000000" opacity="1.000000"></path>
        <path d="M 586.790892 583.994235 L 15.788954 583.994235 L 21.761184 593.657506 L 307.262153 22.655568 L 295.317693 22.655568 L 580.818662 593.657506 L 586.790892 583.994235 Z M 586.790892 597.348547 L 597.594757 597.348547 L 592.763121 587.685276 L 307.262153 16.683338 L 301.289923 4.738879 L 295.317693 16.683338 L 9.816724 587.685276 L 4.985089 597.348547 L 15.788954 597.348547 L 586.790892 597.348547 Z" transform="scale(0.500000,0.500000) translate(242.000000,169.000000)" opacity="0.185929"></path>
        <path d="M 40.220445 22.136270 C 40.220445 32.044403 32.188317 40.076531 22.280184 40.076531 C 12.372052 40.076531 4.339923 32.044403 4.339923 22.136270 C 4.339923 12.228138 12.372052 4.196009 22.280184 4.196009 C 32.188317 4.196009 40.220445 12.228138 40.220445 22.136270 Z" transform="scale(0.500000,0.500000) translate(804.000000,740.000000)" opacity="0.600000"></path>
        <path d="M 40.631333 22.225881 C 40.631333 32.134013 32.599205 40.166141 22.691073 40.166141 C 12.782941 40.166141 4.750813 32.134013 4.750813 22.225881 C 4.750813 12.317749 12.782941 4.285621 22.691073 4.285621 C 32.599205 4.285621 40.631333 12.317749 40.631333 22.225881 Z" transform="scale(0.500000,0.500000) translate(238.000000,737.000000)" opacity="0.600000"></path>
        <path d="M 40.230183 22.856017 C 40.230183 32.764149 32.198055 40.796277 22.289923 40.796277 C 12.381791 40.796277 4.349663 32.764149 4.349663 22.856017 C 4.349663 12.947885 12.381791 4.915757 22.289923 4.915757 C 32.198055 4.915757 40.230183 12.947885 40.230183 22.856017 Z" transform="scale(0.500000,0.500000) translate(521.000000,153.000000)" opacity="0.600000"></path>
    </g>
</svg>