<?xml version="1.0" encoding="utf-8"?>
<!-- Generator: Adobe Illustrator 16.0.0, SVG Export Plug-In . SVG Version: 6.00 Build 0)  -->
<!DOCTYPE svg PUBLIC "-//W3C//DTD SVG 1.1//EN" "http://www.w3.org/Graphics/SVG/1.1/DTD/svg11.dtd">
<svg version="1.1" xmlns="http://www.w3.org/2000/svg" xmlns:xlink="http://www.w3.org/1999/xlink" x="0px" y="0px" width="401px"
	 height="82px" viewBox="0 0 401 82" enable-background="new 0 0 401 82" xml:space="preserve">
<g id="图层_1" display="none">
	<title>Desktop Portrait</title>
	<g id="图层_2" display="inline">
	</g>
	<desc>Created with Sketch.</desc>
	<g id="Page-1" display="inline">
		<g id="Desktop-Portrait">
			<g enable-background="new    ">
				<path d="M105.609,40V18.49h10.47c2.36,0,4.12,0.639,5.28,1.914c0.9,0.997,1.35,2.193,1.35,3.589c0,1.336-0.33,2.393-0.99,3.171
					c-0.38,0.438-0.94,0.848-1.68,1.226c1.22,0.461,2.1,1.181,2.64,2.16c0.46,0.84,0.69,1.86,0.69,3.061
					c0,1.78-0.61,3.26-1.83,4.439c-0.7,0.681-1.43,1.15-2.19,1.41c-1.061,0.36-2.6,0.54-4.62,0.54H105.609z M109.899,22.209
					l0.03,4.68h5.28c0.96,0,1.71-0.179,2.25-0.536c0.62-0.417,0.93-1.033,0.93-1.848c0-0.815-0.29-1.401-0.87-1.759
					c-0.58-0.358-1.4-0.537-2.46-0.537H109.899z M109.899,30.519l0.03,5.761h5.52c1.12,0,1.975-0.255,2.565-0.766
					c0.59-0.51,0.885-1.305,0.885-2.385c0-0.88-0.32-1.534-0.96-1.965c-0.64-0.43-1.41-0.646-2.31-0.646H109.899z"/>
				<path d="M131.259,18.49V40h-4.2V18.49H131.259z"/>
				<path d="M150.669,32.019c0,2.741-0.82,4.86-2.46,6.36c-1.48,1.36-3.38,2.04-5.7,2.04c-2.32,0-4.22-0.68-5.7-2.04
					c-1.64-1.5-2.46-3.619-2.46-6.36c0-2.719,0.82-4.84,2.46-6.359c1.48-1.36,3.37-2.04,5.67-2.04c2.3,0,4.2,0.68,5.7,2.04
					C149.839,27.179,150.669,29.3,150.669,32.019z M146.349,32.019c0-1.319-0.23-2.379-0.69-3.18c-0.641-1.12-1.69-1.68-3.15-1.68
					c-1.44,0-2.48,0.55-3.12,1.649c-0.48,0.841-0.72,1.91-0.72,3.21c0,1.32,0.23,2.381,0.69,3.181c0.64,1.12,1.69,1.68,3.15,1.68
					c1.44,0,2.479-0.55,3.12-1.649C146.109,34.389,146.349,33.32,146.349,32.019z"/>
				<path d="M163.089,34.179h4.26c-0.12,1.38-0.62,2.621-1.5,3.721c-1.32,1.68-3.25,2.52-5.79,2.52c-2.68,0-4.66-0.9-5.94-2.7
					c-0.98-1.38-1.47-3.13-1.47-5.25c0-2.72,0.6-4.84,1.8-6.359c1.3-1.66,3.25-2.49,5.85-2.49c1.68,0,3.12,0.39,4.32,1.17
					c1.66,1.061,2.58,2.71,2.76,4.95h-4.26c-0.18-0.92-0.54-1.6-1.08-2.04c-0.44-0.36-1.01-0.54-1.71-0.54
					c-1.2,0-2.09,0.521-2.67,1.56c-0.46,0.82-0.69,1.841-0.69,3.061c0,1.9,0.265,3.239,0.795,4.02c0.53,0.78,1.345,1.17,2.445,1.17
					c0.92,0,1.66-0.369,2.22-1.109C162.868,35.28,163.089,34.719,163.089,34.179z"/>
				<path d="M174.609,34.959V40h-4.2V18.49h4.2v11.609l5.265-6.06h5.145l-5.64,6.18l5.82,9.78h-5.04l-3.84-6.84L174.609,34.959z"/>
				<path d="M197.048,34.179h4.26c-0.121,1.38-0.621,2.621-1.5,3.721c-1.32,1.68-3.25,2.52-5.79,2.52c-2.68,0-4.66-0.9-5.94-2.7
					c-0.98-1.38-1.47-3.13-1.47-5.25c0-2.72,0.6-4.84,1.8-6.359c1.3-1.66,3.25-2.49,5.85-2.49c1.68,0,3.12,0.39,4.32,1.17
					c1.66,1.061,2.58,2.71,2.76,4.95h-4.26c-0.18-0.92-0.54-1.6-1.08-2.04c-0.44-0.36-1.01-0.54-1.71-0.54
					c-1.2,0-2.09,0.521-2.67,1.56c-0.46,0.82-0.69,1.841-0.69,3.061c0,1.9,0.265,3.239,0.795,4.02c0.53,0.78,1.345,1.17,2.445,1.17
					c0.92,0,1.66-0.369,2.22-1.109C196.828,35.28,197.048,34.719,197.048,34.179z"/>
				<path d="M218.648,28.959V40h-4.2v-9.69c0-0.899-0.12-1.569-0.358-2.01c-0.398-0.76-1.184-1.14-2.357-1.14
					c-0.955,0-1.742,0.32-2.359,0.96c-0.616,0.641-0.925,1.55-0.925,2.729V40h-4.2V18.49h4.2v7.62c0.339-0.7,0.927-1.29,1.765-1.771
					c0.838-0.479,1.805-0.72,2.902-0.72c1.615,0,2.941,0.465,3.979,1.395C218.13,25.945,218.648,27.26,218.648,28.959z"/>
				<path d="M235.479,28.24v8.64c0,0.881,0.082,1.49,0.247,1.83c0.165,0.341,0.402,0.561,0.712,0.66V40h-4.529
					c-0.2-0.6-0.33-1.23-0.391-1.89c-0.68,0.72-1.3,1.229-1.859,1.529c-0.92,0.521-2.021,0.78-3.301,0.78
					c-1.34,0-2.449-0.36-3.33-1.08c-1.02-0.84-1.529-2.029-1.529-3.57c0-1.5,0.414-2.674,1.245-3.524
					c0.829-0.85,1.965-1.375,3.405-1.575l3.75-0.57c0.579-0.079,0.975-0.225,1.185-0.435s0.315-0.484,0.315-0.825
					c0-0.78-0.33-1.31-0.99-1.59c-0.42-0.18-1.021-0.27-1.801-0.27c-0.92,0-1.59,0.25-2.01,0.75c-0.3,0.359-0.479,0.85-0.539,1.47
					h-4.051c0.199-2.2,1.029-3.74,2.49-4.62c1.06-0.64,2.6-0.96,4.62-0.96c1.6,0,2.94,0.27,4.02,0.81
					C234.697,25.209,235.479,26.48,235.479,28.24z M231.398,34.269V32.23c-0.201,0.16-0.521,0.314-0.961,0.465
					c-0.439,0.149-1.105,0.295-1.994,0.435c-0.891,0.141-1.525,0.341-1.905,0.601c-0.561,0.38-0.841,0.97-0.841,1.77
					c0,0.66,0.221,1.16,0.66,1.5c0.36,0.28,0.791,0.42,1.291,0.42c1,0,1.875-0.29,2.625-0.87S231.398,35.209,231.398,34.269z"/>
				<path d="M243.549,18.25v3.9h-4.201v-3.9H243.549z M239.348,24.04h4.201V40h-4.201V24.04z"/>
				<path d="M261.998,28.959V40h-4.2v-9.69c0-0.899-0.12-1.569-0.358-2.01c-0.398-0.76-1.184-1.14-2.357-1.14
					c-0.955,0-1.742,0.32-2.359,0.96c-0.616,0.641-0.925,1.55-0.925,2.729V40h-4.2V24.04h3.99v2.34
					c0.68-1.02,1.404-1.734,2.176-2.145c0.77-0.41,1.664-0.615,2.684-0.615c1.621,0,2.951,0.465,3.99,1.395
					C261.478,25.945,261.998,27.26,261.998,28.959z"/>
			</g>
			<g enable-background="new    ">
				<path d="M42.34,65V51.9h4.915c1.001,0,1.803,0.133,2.408,0.396c0.604,0.266,1.078,0.674,1.421,1.225
					c0.342,0.551,0.514,1.127,0.514,1.729c0,0.561-0.152,1.088-0.456,1.582c-0.304,0.494-0.762,0.895-1.376,1.197
					c0.792,0.232,1.401,0.629,1.828,1.189c0.426,0.559,0.639,1.221,0.639,1.982c0,0.615-0.129,1.186-0.389,1.711
					c-0.259,0.527-0.58,0.936-0.96,1.221c-0.381,0.285-0.859,0.502-1.434,0.648C48.874,64.926,48.169,65,47.335,65H42.34z
					 M44.074,57.404h2.833c0.769,0,1.319-0.051,1.653-0.152c0.441-0.131,0.773-0.348,0.996-0.652
					c0.224-0.303,0.335-0.684,0.335-1.143c0-0.436-0.104-0.818-0.313-1.148c-0.208-0.332-0.506-0.557-0.894-0.68
					c-0.387-0.121-1.051-0.184-1.993-0.184h-2.618V57.404z M44.074,63.453h3.262c0.56,0,0.953-0.02,1.179-0.063
					c0.399-0.07,0.733-0.189,1.001-0.357c0.268-0.166,0.488-0.408,0.661-0.729c0.173-0.318,0.259-0.686,0.259-1.104
					c0-0.488-0.125-0.912-0.375-1.273c-0.25-0.359-0.597-0.613-1.041-0.758c-0.444-0.146-1.083-0.221-1.917-0.221h-3.029V63.453z"/>
				<path d="M54.341,68.654l-0.179-1.51c0.352,0.096,0.658,0.143,0.92,0.143c0.357,0,0.644-0.061,0.858-0.18s0.39-0.285,0.527-0.5
					c0.102-0.16,0.265-0.559,0.492-1.197c0.03-0.09,0.077-0.221,0.143-0.393l-3.601-9.508h1.733l1.975,5.496
					c0.256,0.697,0.486,1.43,0.688,2.197c0.185-0.738,0.405-1.459,0.661-2.162l2.028-5.531h1.608l-3.61,9.65
					c-0.388,1.043-0.688,1.76-0.903,2.154c-0.286,0.529-0.613,0.918-0.983,1.166c-0.369,0.246-0.81,0.371-1.322,0.371
					C55.067,68.852,54.722,68.785,54.341,68.654z"/>
				<path d="M68.906,65V51.9h1.733v5.379h6.809V51.9h1.733V65h-1.733v-6.176h-6.809V65H68.906z"/>
				<path d="M81.791,68.654l-0.179-1.51c0.352,0.096,0.658,0.143,0.92,0.143c0.357,0,0.644-0.061,0.858-0.18s0.39-0.285,0.527-0.5
					c0.102-0.16,0.265-0.559,0.492-1.197c0.03-0.09,0.077-0.221,0.143-0.393l-3.601-9.508h1.733l1.975,5.496
					c0.256,0.697,0.486,1.43,0.688,2.197c0.185-0.738,0.405-1.459,0.662-2.162l2.028-5.531h1.608l-3.61,9.65
					c-0.388,1.043-0.688,1.76-0.903,2.154c-0.286,0.529-0.613,0.918-0.983,1.166c-0.369,0.246-0.81,0.371-1.322,0.371
					C82.517,68.852,82.172,68.785,81.791,68.654z"/>
				<path d="M91.013,68.637V55.51h1.465v1.232c0.345-0.482,0.735-0.844,1.17-1.084c0.435-0.242,0.962-0.363,1.582-0.363
					c0.81,0,1.525,0.209,2.145,0.627c0.62,0.416,1.087,1.004,1.403,1.764s0.474,1.592,0.474,2.498c0,0.971-0.174,1.846-0.522,2.623
					c-0.349,0.777-0.855,1.373-1.519,1.787c-0.665,0.414-1.363,0.621-2.096,0.621c-0.536,0-1.017-0.113-1.443-0.34
					c-0.426-0.227-0.776-0.514-1.05-0.857v4.619H91.013z M92.469,60.309c0,1.221,0.248,2.123,0.742,2.707
					c0.495,0.584,1.093,0.875,1.796,0.875c0.715,0,1.327-0.301,1.836-0.906c0.509-0.604,0.764-1.541,0.764-2.811
					c0-1.209-0.249-2.113-0.746-2.717c-0.498-0.602-1.092-0.902-1.783-0.902c-0.685,0-1.291,0.32-1.818,0.961
					S92.469,59.088,92.469,60.309z"/>
				<path d="M107.686,61.943l1.662,0.205c-0.262,0.971-0.748,1.725-1.457,2.262c-0.708,0.535-1.614,0.805-2.716,0.805
					c-1.388,0-2.488-0.428-3.302-1.283c-0.813-0.855-1.22-2.053-1.22-3.596c0-1.598,0.411-2.836,1.233-3.719
					c0.822-0.881,1.888-1.322,3.199-1.322c1.269,0,2.306,0.432,3.11,1.297c0.804,0.863,1.206,2.078,1.206,3.645
					c0,0.096-0.003,0.238-0.009,0.43h-7.077c0.06,1.043,0.354,1.84,0.885,2.395s1.191,0.83,1.984,0.83
					c0.589,0,1.093-0.154,1.51-0.463C107.111,63.117,107.441,62.623,107.686,61.943z M102.405,59.344h5.299
					c-0.071-0.799-0.274-1.396-0.607-1.797c-0.513-0.619-1.177-0.93-1.993-0.93c-0.739,0-1.36,0.248-1.863,0.742
					S102.458,58.516,102.405,59.344z"/>
				<path d="M111.35,65v-9.49h1.447v1.439c0.37-0.674,0.71-1.117,1.023-1.332c0.313-0.215,0.657-0.322,1.032-0.322
					c0.542,0,1.093,0.174,1.653,0.52l-0.554,1.492c-0.393-0.232-0.786-0.35-1.179-0.35c-0.352,0-0.667,0.105-0.947,0.318
					c-0.28,0.211-0.479,0.504-0.599,0.879c-0.179,0.572-0.268,1.197-0.268,1.877V65H111.35z"/>
				<path d="M117.425,65V51.9h1.608V65H117.425z"/>
				<path d="M128.023,61.943l1.662,0.205c-0.262,0.971-0.748,1.725-1.457,2.262c-0.708,0.535-1.614,0.805-2.716,0.805
					c-1.388,0-2.488-0.428-3.302-1.283c-0.813-0.855-1.219-2.053-1.219-3.596c0-1.598,0.411-2.836,1.233-3.719
					c0.822-0.881,1.888-1.322,3.199-1.322c1.269,0,2.306,0.432,3.11,1.297c0.804,0.863,1.206,2.078,1.206,3.645
					c0,0.096-0.003,0.238-0.009,0.43h-7.077c0.06,1.043,0.354,1.84,0.885,2.395s1.191,0.83,1.984,0.83
					c0.589,0,1.093-0.154,1.51-0.463C127.448,63.117,127.779,62.623,128.023,61.943z M122.742,59.344h5.299
					c-0.071-0.799-0.274-1.396-0.607-1.797c-0.513-0.619-1.177-0.93-1.993-0.93c-0.739,0-1.36,0.248-1.863,0.742
					S122.796,58.516,122.742,59.344z"/>
				<path d="M137.861,65v-1.197c-0.602,0.941-1.486,1.412-2.654,1.412c-0.756,0-1.452-0.209-2.086-0.627
					c-0.634-0.416-1.126-0.998-1.474-1.746c-0.349-0.748-0.523-1.607-0.523-2.578c0-0.947,0.158-1.807,0.474-2.578
					c0.315-0.771,0.789-1.363,1.421-1.773c0.631-0.41,1.337-0.617,2.118-0.617c0.572,0,1.081,0.121,1.528,0.363
					c0.447,0.24,0.81,0.555,1.09,0.941V51.9h1.599V65H137.861z M132.777,60.264c0,1.215,0.256,2.123,0.768,2.725
					s1.117,0.902,1.814,0.902c0.703,0,1.3-0.287,1.792-0.861c0.492-0.574,0.737-1.451,0.737-2.631c0-1.299-0.25-2.252-0.75-2.859
					s-1.117-0.912-1.85-0.912c-0.715,0-1.312,0.291-1.792,0.875C133.017,58.086,132.777,59.006,132.777,60.264z"/>
				<path d="M141.587,65.785l1.563,0.232c0.065,0.482,0.247,0.834,0.545,1.055c0.399,0.299,0.944,0.447,1.635,0.447
					c0.745,0,1.319-0.148,1.725-0.447c0.405-0.297,0.679-0.715,0.822-1.25c0.083-0.328,0.122-1.016,0.116-2.064
					c-0.703,0.828-1.579,1.242-2.627,1.242c-1.305,0-2.314-0.471-3.029-1.412s-1.072-2.07-1.072-3.387
					c0-0.906,0.164-1.74,0.491-2.506s0.803-1.357,1.425-1.773c0.623-0.418,1.354-0.627,2.194-0.627c1.12,0,2.043,0.453,2.77,1.359
					V55.51h1.483v8.203c0,1.477-0.151,2.523-0.452,3.141s-0.777,1.104-1.43,1.461c-0.652,0.357-1.455,0.537-2.408,0.537
					c-1.132,0-2.046-0.256-2.744-0.766C141.9,67.578,141.563,66.811,141.587,65.785z M142.918,60.086
					c0,1.244,0.247,2.152,0.742,2.725s1.114,0.857,1.859,0.857c0.738,0,1.358-0.285,1.858-0.854s0.75-1.461,0.75-2.676
					c0-1.162-0.258-2.037-0.773-2.627s-1.136-0.885-1.863-0.885c-0.715,0-1.323,0.291-1.823,0.871
					C143.169,58.078,142.918,58.941,142.918,60.086z"/>
				<path d="M158.556,61.943l1.662,0.205c-0.262,0.971-0.748,1.725-1.457,2.262c-0.708,0.535-1.614,0.805-2.716,0.805
					c-1.388,0-2.488-0.428-3.302-1.283c-0.813-0.855-1.22-2.053-1.22-3.596c0-1.598,0.411-2.836,1.233-3.719
					c0.822-0.881,1.888-1.322,3.199-1.322c1.269,0,2.306,0.432,3.11,1.297c0.804,0.863,1.206,2.078,1.206,3.645
					c0,0.096-0.003,0.238-0.009,0.43h-7.077c0.06,1.043,0.354,1.84,0.885,2.395s1.191,0.83,1.984,0.83
					c0.589,0,1.093-0.154,1.51-0.463C157.981,63.117,158.312,62.623,158.556,61.943z M153.275,59.344h5.299
					c-0.071-0.799-0.274-1.396-0.607-1.797c-0.513-0.619-1.177-0.93-1.993-0.93c-0.739,0-1.36,0.248-1.863,0.742
					S153.329,58.516,153.275,59.344z"/>
				<path d="M162.22,65v-9.49h1.447v1.439c0.37-0.674,0.71-1.117,1.023-1.332c0.313-0.215,0.657-0.322,1.032-0.322
					c0.542,0,1.093,0.174,1.653,0.52l-0.554,1.492c-0.393-0.232-0.786-0.35-1.179-0.35c-0.352,0-0.667,0.105-0.947,0.318
					c-0.28,0.211-0.479,0.504-0.599,0.879c-0.179,0.572-0.268,1.197-0.268,1.877V65H162.22z"/>
				<path d="M173.71,65V51.9h8.837v1.545h-7.104v4.057h6.147v1.547h-6.147V65H173.71z"/>
				<path d="M190.786,63.828c-0.596,0.508-1.169,0.865-1.72,1.072c-0.551,0.209-1.143,0.314-1.774,0.314
					c-1.042,0-1.844-0.256-2.404-0.766c-0.56-0.508-0.84-1.16-0.84-1.951c0-0.465,0.106-0.889,0.317-1.273s0.488-0.693,0.831-0.926
					c0.342-0.232,0.728-0.408,1.157-0.527c0.315-0.082,0.792-0.162,1.43-0.24c1.298-0.154,2.254-0.34,2.868-0.555
					c0.006-0.221,0.009-0.359,0.009-0.42c0-0.654-0.152-1.117-0.456-1.385c-0.411-0.363-1.022-0.545-1.832-0.545
					c-0.756,0-1.315,0.133-1.675,0.398c-0.36,0.264-0.627,0.732-0.8,1.406l-1.573-0.215c0.143-0.672,0.378-1.217,0.706-1.631
					s0.801-0.732,1.421-0.955c0.62-0.225,1.337-0.336,2.153-0.336c0.81,0,1.468,0.096,1.975,0.287
					c0.506,0.189,0.879,0.43,1.117,0.719s0.405,0.654,0.5,1.094c0.054,0.275,0.08,0.77,0.08,1.484v2.145
					c0,1.494,0.035,2.441,0.103,2.836c0.068,0.396,0.204,0.777,0.407,1.141h-1.68C190.941,64.666,190.834,64.275,190.786,63.828z
					 M190.652,60.236c-0.584,0.238-1.459,0.441-2.627,0.607c-0.662,0.096-1.129,0.203-1.403,0.322
					c-0.274,0.119-0.486,0.293-0.635,0.523c-0.149,0.229-0.223,0.484-0.223,0.764c0,0.428,0.162,0.785,0.487,1.072
					c0.325,0.285,0.8,0.428,1.425,0.428c0.62,0,1.17-0.135,1.653-0.406c0.483-0.27,0.837-0.641,1.063-1.111
					c0.173-0.363,0.259-0.9,0.259-1.609V60.236z"/>
				<path d="M196.255,65h-1.492V51.9h1.608v4.674c0.679-0.854,1.546-1.279,2.601-1.279c0.583,0,1.136,0.119,1.657,0.354
					c0.521,0.236,0.95,0.566,1.287,0.992c0.336,0.426,0.6,0.939,0.791,1.541c0.189,0.602,0.285,1.246,0.285,1.93
					c0,1.627-0.402,2.883-1.206,3.771c-0.804,0.887-1.769,1.332-2.895,1.332c-1.12,0-1.999-0.469-2.636-1.404V65z M196.237,60.184
					c0,1.137,0.155,1.959,0.464,2.467c0.506,0.826,1.191,1.24,2.055,1.24c0.703,0,1.311-0.305,1.823-0.914
					c0.512-0.611,0.768-1.521,0.768-2.73c0-1.24-0.245-2.154-0.736-2.744c-0.492-0.59-1.086-0.885-1.783-0.885
					c-0.703,0-1.311,0.307-1.823,0.916C196.493,58.145,196.237,59.027,196.237,60.184z"/>
				<path d="M204.932,65v-9.49h1.447v1.439c0.369-0.674,0.711-1.117,1.023-1.332s0.656-0.322,1.032-0.322
					c0.542,0,1.093,0.174,1.653,0.52l-0.555,1.492c-0.393-0.232-0.786-0.35-1.18-0.35c-0.352,0-0.667,0.105-0.947,0.318
					c-0.279,0.211-0.479,0.504-0.598,0.879c-0.18,0.572-0.269,1.197-0.269,1.877V65H204.932z"/>
				<path d="M211.053,53.75V51.9h1.607v1.85H211.053z M211.053,65v-9.49h1.607V65H211.053z"/>
				<path d="M221.301,61.523l1.582,0.205c-0.172,1.09-0.615,1.943-1.326,2.561c-0.713,0.617-1.586,0.926-2.623,0.926
					c-1.299,0-2.343-0.426-3.132-1.273c-0.79-0.85-1.185-2.066-1.185-3.65c0-1.025,0.17-1.922,0.51-2.689
					c0.34-0.77,0.856-1.346,1.551-1.73c0.693-0.383,1.449-0.576,2.265-0.576c1.03,0,1.874,0.262,2.528,0.783
					c0.656,0.521,1.076,1.26,1.26,2.221l-1.563,0.24c-0.149-0.637-0.413-1.117-0.791-1.439c-0.379-0.32-0.836-0.482-1.372-0.482
					c-0.81,0-1.468,0.291-1.975,0.871c-0.507,0.582-0.76,1.5-0.76,2.758c0,1.275,0.245,2.201,0.733,2.779s1.125,0.865,1.912,0.865
					c0.631,0,1.158-0.193,1.581-0.58S221.188,62.328,221.301,61.523z"/>
			</g>
		</g>
	</g>
</g>
<g id="图层_1_x5F_复制">
	<title>Desktop Portrait</title>
	<desc>Created with Sketch.</desc>
	<g id="Page-1_1_">
		<g id="Desktop-Portrait_1_">
			<g enable-background="new    ">
				<path fill="#FFFFFF" d="M41,40.025v-21.51h10.47c2.36,0,4.12,0.639,5.28,1.914c0.9,0.997,1.35,2.193,1.35,3.589
					c0,1.336-0.33,2.393-0.99,3.171c-0.38,0.438-0.94,0.848-1.68,1.226c1.22,0.461,2.1,1.181,2.64,2.16
					c0.46,0.84,0.69,1.86,0.69,3.061c0,1.78-0.61,3.26-1.83,4.439c-0.7,0.681-1.43,1.15-2.19,1.41c-1.061,0.36-2.6,0.54-4.62,0.54
					H41z M45.29,22.235l0.03,4.68h5.28c0.96,0,1.71-0.179,2.25-0.536c0.62-0.417,0.93-1.033,0.93-1.848
					c0-0.815-0.29-1.401-0.87-1.759c-0.58-0.358-1.4-0.537-2.46-0.537H45.29z M45.29,30.544l0.03,5.761h5.52
					c1.12,0,1.975-0.255,2.565-0.766c0.59-0.51,0.885-1.305,0.885-2.385c0-0.88-0.32-1.534-0.96-1.965
					c-0.64-0.43-1.41-0.646-2.31-0.646H45.29z"/>
				<path fill="#FFFFFF" d="M66.65,18.515v21.51h-4.2v-21.51H66.65z"/>
				<path fill="#FFFFFF" d="M86.06,32.044c0,2.741-0.82,4.86-2.46,6.36c-1.48,1.36-3.38,2.04-5.7,2.04c-2.32,0-4.22-0.68-5.7-2.04
					c-1.64-1.5-2.46-3.619-2.46-6.36c0-2.719,0.82-4.84,2.46-6.359c1.48-1.36,3.37-2.04,5.67-2.04c2.3,0,4.2,0.68,5.7,2.04
					C85.23,27.205,86.06,29.326,86.06,32.044z M81.74,32.044c0-1.319-0.23-2.379-0.69-3.18c-0.641-1.12-1.69-1.68-3.15-1.68
					c-1.44,0-2.48,0.55-3.12,1.649c-0.48,0.841-0.72,1.91-0.72,3.21c0,1.32,0.23,2.381,0.69,3.181c0.64,1.12,1.69,1.68,3.15,1.68
					c1.44,0,2.479-0.55,3.12-1.649C81.5,34.415,81.74,33.345,81.74,32.044z"/>
				<path fill="#FFFFFF" d="M98.48,34.205h4.26c-0.12,1.38-0.62,2.621-1.5,3.721c-1.32,1.68-3.25,2.52-5.79,2.52
					c-2.68,0-4.66-0.9-5.94-2.7c-0.98-1.38-1.47-3.13-1.47-5.25c0-2.72,0.6-4.84,1.8-6.359c1.3-1.66,3.25-2.49,5.85-2.49
					c1.68,0,3.12,0.39,4.32,1.17c1.66,1.061,2.58,2.71,2.76,4.95h-4.26c-0.18-0.92-0.54-1.6-1.08-2.04
					c-0.44-0.36-1.01-0.54-1.71-0.54c-1.2,0-2.09,0.521-2.67,1.56c-0.46,0.82-0.69,1.841-0.69,3.061c0,1.9,0.265,3.239,0.795,4.02
					c0.53,0.78,1.345,1.17,2.445,1.17c0.92,0,1.66-0.369,2.22-1.109C98.259,35.305,98.48,34.745,98.48,34.205z"/>
				<path fill="#FFFFFF" d="M110,34.985v5.04h-4.2v-21.51h4.2v11.609l5.265-6.06h5.145l-5.64,6.18l5.82,9.78h-5.04l-3.84-6.84
					L110,34.985z"/>
				<path fill="#FFFFFF" d="M132.439,34.205h4.26c-0.121,1.38-0.621,2.621-1.5,3.721c-1.32,1.68-3.25,2.52-5.79,2.52
					c-2.68,0-4.66-0.9-5.94-2.7c-0.98-1.38-1.47-3.13-1.47-5.25c0-2.72,0.6-4.84,1.8-6.359c1.3-1.66,3.25-2.49,5.85-2.49
					c1.68,0,3.12,0.39,4.32,1.17c1.66,1.061,2.58,2.71,2.76,4.95h-4.26c-0.18-0.92-0.54-1.6-1.08-2.04
					c-0.44-0.36-1.01-0.54-1.71-0.54c-1.2,0-2.09,0.521-2.67,1.56c-0.46,0.82-0.69,1.841-0.69,3.061c0,1.9,0.265,3.239,0.795,4.02
					c0.53,0.78,1.345,1.17,2.445,1.17c0.92,0,1.66-0.369,2.22-1.109C132.219,35.305,132.439,34.745,132.439,34.205z"/>
				<path fill="#FFFFFF" d="M154.04,28.985v11.04h-4.2v-9.69c0-0.899-0.12-1.569-0.358-2.01c-0.398-0.76-1.184-1.14-2.357-1.14
					c-0.955,0-1.742,0.32-2.359,0.96c-0.616,0.641-0.925,1.55-0.925,2.729v9.15h-4.2v-21.51h4.2v7.62
					c0.339-0.7,0.927-1.29,1.765-1.771c0.838-0.479,1.805-0.72,2.902-0.72c1.615,0,2.941,0.465,3.979,1.395
					C153.521,25.97,154.04,27.286,154.04,28.985z"/>
				<path fill="#FFFFFF" d="M170.87,28.265v8.64c0,0.881,0.082,1.49,0.247,1.83c0.165,0.341,0.402,0.561,0.712,0.66v0.63h-4.529
					c-0.2-0.6-0.33-1.23-0.391-1.89c-0.68,0.72-1.3,1.229-1.859,1.529c-0.92,0.521-2.021,0.78-3.301,0.78
					c-1.34,0-2.449-0.36-3.33-1.08c-1.02-0.84-1.529-2.029-1.529-3.57c0-1.5,0.414-2.674,1.245-3.524
					c0.829-0.85,1.965-1.375,3.405-1.575l3.75-0.57c0.579-0.079,0.975-0.225,1.185-0.435s0.315-0.484,0.315-0.825
					c0-0.78-0.33-1.31-0.99-1.59c-0.42-0.18-1.021-0.27-1.801-0.27c-0.92,0-1.59,0.25-2.01,0.75c-0.3,0.359-0.479,0.85-0.539,1.47
					h-4.051c0.199-2.2,1.029-3.74,2.49-4.62c1.06-0.64,2.6-0.96,4.62-0.96c1.6,0,2.94,0.27,4.02,0.81
					C170.088,25.235,170.87,26.505,170.87,28.265z M166.79,34.294v-2.039c-0.201,0.16-0.521,0.314-0.961,0.465
					c-0.439,0.149-1.105,0.295-1.994,0.435c-0.891,0.141-1.525,0.341-1.905,0.601c-0.561,0.38-0.841,0.97-0.841,1.77
					c0,0.66,0.221,1.16,0.66,1.5c0.36,0.28,0.791,0.42,1.291,0.42c1,0,1.875-0.29,2.625-0.87S166.79,35.235,166.79,34.294z"/>
				<path fill="#FFFFFF" d="M178.94,18.275v3.9h-4.201v-3.9H178.94z M174.739,24.065h4.201v15.96h-4.201V24.065z"/>
				<path fill="#FFFFFF" d="M197.389,28.985v11.04h-4.2v-9.69c0-0.899-0.12-1.569-0.358-2.01c-0.398-0.76-1.184-1.14-2.357-1.14
					c-0.955,0-1.742,0.32-2.359,0.96c-0.616,0.641-0.925,1.55-0.925,2.729v9.15h-4.2v-15.96h3.99v2.34
					c0.68-1.02,1.404-1.734,2.176-2.145c0.77-0.41,1.664-0.615,2.684-0.615c1.621,0,2.951,0.465,3.99,1.395
					C196.869,25.97,197.389,27.286,197.389,28.985z"/>
			</g>
			<g enable-background="new    ">
				<path fill="#FFFFFF" d="M63.297,65.025v-13.1h1.733v5.379h6.809v-5.379h1.733v13.1h-1.733V58.85H65.03v6.176H63.297z"/>
				<path fill="#FFFFFF" d="M76.182,68.68l-0.179-1.51c0.352,0.096,0.658,0.143,0.92,0.143c0.357,0,0.644-0.061,0.858-0.18
					s0.39-0.285,0.527-0.5c0.102-0.16,0.265-0.559,0.492-1.197c0.03-0.09,0.077-0.221,0.143-0.393l-3.601-9.508h1.733l1.975,5.496
					c0.256,0.697,0.486,1.43,0.688,2.197c0.185-0.738,0.405-1.459,0.662-2.162l2.028-5.531h1.608l-3.61,9.65
					c-0.388,1.043-0.688,1.76-0.903,2.154c-0.286,0.529-0.613,0.918-0.983,1.166c-0.369,0.246-0.81,0.371-1.322,0.371
					C76.908,68.877,76.563,68.811,76.182,68.68z"/>
				<path fill="#FFFFFF" d="M85.404,68.662V55.535h1.465v1.232c0.345-0.482,0.735-0.844,1.17-1.084
					c0.435-0.242,0.962-0.363,1.582-0.363c0.81,0,1.525,0.209,2.145,0.627c0.62,0.416,1.087,1.004,1.403,1.764
					s0.474,1.592,0.474,2.498c0,0.971-0.174,1.846-0.522,2.623c-0.349,0.777-0.855,1.373-1.519,1.787
					c-0.665,0.414-1.363,0.621-2.096,0.621c-0.536,0-1.017-0.113-1.443-0.34c-0.426-0.227-0.776-0.514-1.05-0.857v4.619H85.404z
					 M86.86,60.334c0,1.221,0.248,2.123,0.742,2.707c0.495,0.584,1.093,0.875,1.796,0.875c0.715,0,1.327-0.301,1.836-0.906
					c0.509-0.604,0.764-1.541,0.764-2.811c0-1.209-0.249-2.113-0.746-2.717c-0.498-0.602-1.092-0.902-1.783-0.902
					c-0.685,0-1.291,0.32-1.818,0.961S86.86,59.113,86.86,60.334z"/>
				<path fill="#FFFFFF" d="M102.077,61.969l1.662,0.205c-0.262,0.971-0.748,1.725-1.457,2.262
					c-0.708,0.535-1.614,0.805-2.716,0.805c-1.388,0-2.488-0.428-3.302-1.283c-0.813-0.855-1.22-2.053-1.22-3.596
					c0-1.598,0.411-2.836,1.233-3.719c0.822-0.881,1.888-1.322,3.199-1.322c1.269,0,2.306,0.432,3.11,1.297
					c0.804,0.863,1.206,2.078,1.206,3.645c0,0.096-0.003,0.238-0.009,0.43h-7.077c0.06,1.043,0.354,1.84,0.885,2.395
					s1.191,0.83,1.984,0.83c0.589,0,1.093-0.154,1.51-0.463C101.502,63.143,101.833,62.648,102.077,61.969z M96.796,59.369h5.299
					c-0.071-0.799-0.274-1.396-0.607-1.797c-0.513-0.619-1.177-0.93-1.993-0.93c-0.739,0-1.36,0.248-1.863,0.742
					S96.85,58.541,96.796,59.369z"/>
				<path fill="#FFFFFF" d="M105.741,65.025v-9.49h1.447v1.439c0.37-0.674,0.71-1.117,1.023-1.332
					c0.313-0.215,0.657-0.322,1.032-0.322c0.542,0,1.093,0.174,1.653,0.52l-0.554,1.492c-0.393-0.232-0.786-0.35-1.179-0.35
					c-0.352,0-0.667,0.105-0.947,0.318c-0.28,0.211-0.479,0.504-0.599,0.879c-0.179,0.572-0.268,1.197-0.268,1.877v4.969H105.741z"
					/>
				<path fill="#FFFFFF" d="M111.816,65.025v-13.1h1.608v13.1H111.816z"/>
				<path fill="#FFFFFF" d="M122.415,61.969l1.662,0.205c-0.262,0.971-0.748,1.725-1.457,2.262
					c-0.708,0.535-1.614,0.805-2.716,0.805c-1.388,0-2.488-0.428-3.302-1.283c-0.813-0.855-1.219-2.053-1.219-3.596
					c0-1.598,0.411-2.836,1.233-3.719c0.822-0.881,1.888-1.322,3.199-1.322c1.269,0,2.306,0.432,3.11,1.297
					c0.804,0.863,1.206,2.078,1.206,3.645c0,0.096-0.003,0.238-0.009,0.43h-7.077c0.06,1.043,0.354,1.84,0.885,2.395
					s1.191,0.83,1.984,0.83c0.589,0,1.093-0.154,1.51-0.463C121.839,63.143,122.17,62.648,122.415,61.969z M117.133,59.369h5.299
					c-0.071-0.799-0.274-1.396-0.607-1.797c-0.513-0.619-1.177-0.93-1.993-0.93c-0.739,0-1.36,0.248-1.863,0.742
					S117.187,58.541,117.133,59.369z"/>
				<path fill="#FFFFFF" d="M132.252,65.025v-1.197c-0.602,0.941-1.486,1.412-2.654,1.412c-0.756,0-1.452-0.209-2.086-0.627
					c-0.634-0.416-1.126-0.998-1.474-1.746c-0.349-0.748-0.523-1.607-0.523-2.578c0-0.947,0.158-1.807,0.474-2.578
					c0.315-0.771,0.789-1.363,1.421-1.773c0.631-0.41,1.337-0.617,2.118-0.617c0.572,0,1.081,0.121,1.528,0.363
					c0.447,0.24,0.81,0.555,1.09,0.941v-4.699h1.599v13.1H132.252z M127.168,60.289c0,1.215,0.256,2.123,0.768,2.725
					s1.117,0.902,1.814,0.902c0.703,0,1.3-0.287,1.792-0.861c0.492-0.574,0.737-1.451,0.737-2.631c0-1.299-0.25-2.252-0.75-2.859
					s-1.117-0.912-1.85-0.912c-0.715,0-1.312,0.291-1.792,0.875C127.408,58.111,127.168,59.031,127.168,60.289z"/>
				<path fill="#FFFFFF" d="M135.979,65.811l1.563,0.232c0.065,0.482,0.247,0.834,0.545,1.055c0.399,0.299,0.944,0.447,1.635,0.447
					c0.745,0,1.319-0.148,1.725-0.447c0.405-0.297,0.679-0.715,0.822-1.25c0.083-0.328,0.122-1.016,0.116-2.064
					c-0.703,0.828-1.579,1.242-2.627,1.242c-1.305,0-2.314-0.471-3.029-1.412s-1.072-2.07-1.072-3.387
					c0-0.906,0.164-1.74,0.491-2.506s0.803-1.357,1.425-1.773c0.623-0.418,1.354-0.627,2.194-0.627c1.12,0,2.043,0.453,2.77,1.359
					v-1.145h1.483v8.203c0,1.477-0.151,2.523-0.452,3.141s-0.777,1.104-1.43,1.461c-0.652,0.357-1.455,0.537-2.408,0.537
					c-1.132,0-2.046-0.256-2.744-0.766C136.291,67.604,135.955,66.836,135.979,65.811z M137.31,60.111
					c0,1.244,0.247,2.152,0.742,2.725s1.114,0.857,1.859,0.857c0.738,0,1.358-0.285,1.858-0.854s0.75-1.461,0.75-2.676
					c0-1.162-0.258-2.037-0.773-2.627s-1.136-0.885-1.863-0.885c-0.715,0-1.323,0.291-1.823,0.871
					C137.56,58.104,137.31,58.967,137.31,60.111z"/>
				<path fill="#FFFFFF" d="M152.947,61.969l1.662,0.205c-0.262,0.971-0.748,1.725-1.457,2.262
					c-0.708,0.535-1.614,0.805-2.716,0.805c-1.388,0-2.488-0.428-3.302-1.283c-0.813-0.855-1.22-2.053-1.22-3.596
					c0-1.598,0.411-2.836,1.233-3.719c0.822-0.881,1.888-1.322,3.199-1.322c1.269,0,2.306,0.432,3.11,1.297
					c0.804,0.863,1.206,2.078,1.206,3.645c0,0.096-0.003,0.238-0.009,0.43h-7.077c0.06,1.043,0.354,1.84,0.885,2.395
					s1.191,0.83,1.984,0.83c0.589,0,1.093-0.154,1.51-0.463C152.372,63.143,152.703,62.648,152.947,61.969z M147.666,59.369h5.299
					c-0.071-0.799-0.274-1.396-0.607-1.797c-0.513-0.619-1.177-0.93-1.993-0.93c-0.739,0-1.36,0.248-1.863,0.742
					S147.72,58.541,147.666,59.369z"/>
				<path fill="#FFFFFF" d="M156.611,65.025v-9.49h1.447v1.439c0.37-0.674,0.71-1.117,1.023-1.332
					c0.313-0.215,0.657-0.322,1.032-0.322c0.542,0,1.093,0.174,1.653,0.52l-0.554,1.492c-0.393-0.232-0.786-0.35-1.179-0.35
					c-0.352,0-0.667,0.105-0.947,0.318c-0.28,0.211-0.479,0.504-0.599,0.879c-0.179,0.572-0.268,1.197-0.268,1.877v4.969H156.611z"
					/>
				<path fill="#FFFFFF" d="M168.102,65.025v-13.1h8.837v1.545h-7.104v4.057h6.147v1.547h-6.147v5.951H168.102z"/>
				<path fill="#FFFFFF" d="M185.177,63.854c-0.596,0.508-1.169,0.865-1.72,1.072c-0.551,0.209-1.143,0.314-1.774,0.314
					c-1.042,0-1.844-0.256-2.404-0.766c-0.56-0.508-0.84-1.16-0.84-1.951c0-0.465,0.106-0.889,0.317-1.273s0.488-0.693,0.831-0.926
					c0.342-0.232,0.728-0.408,1.157-0.527c0.315-0.082,0.792-0.162,1.43-0.24c1.298-0.154,2.254-0.34,2.868-0.555
					c0.006-0.221,0.009-0.359,0.009-0.42c0-0.654-0.152-1.117-0.456-1.385c-0.411-0.363-1.022-0.545-1.832-0.545
					c-0.756,0-1.315,0.133-1.675,0.398c-0.36,0.264-0.627,0.732-0.8,1.406l-1.573-0.215c0.143-0.672,0.378-1.217,0.706-1.631
					s0.801-0.732,1.421-0.955c0.62-0.225,1.337-0.336,2.153-0.336c0.81,0,1.468,0.096,1.975,0.287
					c0.506,0.189,0.879,0.43,1.117,0.719s0.405,0.654,0.5,1.094c0.054,0.275,0.08,0.77,0.08,1.484v2.145
					c0,1.494,0.035,2.441,0.103,2.836c0.068,0.396,0.204,0.777,0.407,1.141h-1.68C185.333,64.691,185.225,64.301,185.177,63.854z
					 M185.043,60.262c-0.584,0.238-1.459,0.441-2.627,0.607c-0.662,0.096-1.129,0.203-1.403,0.322
					c-0.274,0.119-0.486,0.293-0.635,0.523c-0.149,0.229-0.223,0.484-0.223,0.764c0,0.428,0.162,0.785,0.487,1.072
					c0.325,0.285,0.8,0.428,1.425,0.428c0.62,0,1.17-0.135,1.653-0.406c0.483-0.27,0.837-0.641,1.063-1.111
					c0.173-0.363,0.259-0.9,0.259-1.609V60.262z"/>
				<path fill="#FFFFFF" d="M190.646,65.025h-1.492v-13.1h1.608V56.6c0.679-0.854,1.546-1.279,2.601-1.279
					c0.583,0,1.136,0.119,1.657,0.354c0.521,0.236,0.95,0.566,1.287,0.992c0.336,0.426,0.6,0.939,0.791,1.541
					c0.189,0.602,0.285,1.246,0.285,1.93c0,1.627-0.402,2.883-1.206,3.771c-0.804,0.887-1.769,1.332-2.895,1.332
					c-1.12,0-1.999-0.469-2.636-1.404V65.025z M190.628,60.209c0,1.137,0.155,1.959,0.464,2.467c0.506,0.826,1.191,1.24,2.055,1.24
					c0.703,0,1.311-0.305,1.823-0.914c0.512-0.611,0.768-1.521,0.768-2.73c0-1.24-0.245-2.154-0.736-2.744
					c-0.492-0.59-1.086-0.885-1.783-0.885c-0.703,0-1.311,0.307-1.823,0.916C190.884,58.17,190.628,59.053,190.628,60.209z"/>
				<path fill="#FFFFFF" d="M199.323,65.025v-9.49h1.447v1.439c0.369-0.674,0.71-1.117,1.023-1.332s0.656-0.322,1.033-0.322
					c0.541,0,1.092,0.174,1.652,0.52l-0.555,1.492c-0.393-0.232-0.785-0.35-1.18-0.35c-0.352,0-0.666,0.105-0.947,0.318
					c-0.279,0.211-0.479,0.504-0.598,0.879c-0.18,0.572-0.268,1.197-0.268,1.877v4.969H199.323z"/>
				<path fill="#FFFFFF" d="M205.443,53.775v-1.85h1.607v1.85H205.443z M205.443,65.025v-9.49h1.607v9.49H205.443z"/>
				<path fill="#FFFFFF" d="M215.691,61.549l1.582,0.205c-0.172,1.09-0.615,1.943-1.326,2.561c-0.713,0.617-1.586,0.926-2.623,0.926
					c-1.299,0-2.342-0.426-3.131-1.273c-0.791-0.85-1.186-2.066-1.186-3.65c0-1.025,0.17-1.922,0.51-2.689
					c0.34-0.77,0.857-1.346,1.551-1.73c0.693-0.383,1.449-0.576,2.266-0.576c1.029,0,1.873,0.262,2.527,0.783
					c0.656,0.521,1.076,1.26,1.26,2.221l-1.563,0.24c-0.148-0.637-0.412-1.117-0.791-1.439c-0.379-0.32-0.836-0.482-1.371-0.482
					c-0.811,0-1.469,0.291-1.975,0.871c-0.508,0.582-0.76,1.5-0.76,2.758c0,1.275,0.244,2.201,0.732,2.779s1.125,0.865,1.912,0.865
					c0.631,0,1.158-0.193,1.582-0.58C215.311,62.949,215.58,62.354,215.691,61.549z"/>
			</g>
		</g>
	</g>
	<g>
		<polygon fill="none" stroke="#FFFFFF" stroke-width="0.5" stroke-miterlimit="10" points="54.719,66.613 46.198,67.407 
			41.287,60.438 44.862,52.676 53.347,51.881 58.293,58.85 		"/>
		<polygon fill="none" stroke="#FFFFFF" stroke-width="0.5" stroke-miterlimit="10" points="46.198,67.407 44.862,60.367 
			44.862,52.676 51.433,54.59 58.293,58.85 53.202,63.363 		"/>
		<circle fill="none" stroke="#FFFFFF" stroke-width="1.5" stroke-miterlimit="10" cx="51.578" cy="54.662" r="0.252"/>
		<circle fill="none" stroke="#FFFFFF" stroke-width="1.5" stroke-miterlimit="10" cx="53.238" cy="63.364" r="0.252"/>
		<circle fill="none" stroke="#FFFFFF" stroke-width="1.5" stroke-miterlimit="10" cx="46.27" cy="67.407" r="0.253"/>
		<circle fill="none" stroke="#FFFFFF" stroke-width="1.5" stroke-miterlimit="10" cx="44.862" cy="60.438" r="0.253"/>
		<circle fill="none" stroke="#FFFFFF" stroke-width="1.5" stroke-miterlimit="10" cx="58.293" cy="58.85" r="0.252"/>
		<circle fill="none" stroke="#FFFFFF" stroke-width="1.5" stroke-miterlimit="10" cx="44.862" cy="52.676" r="0.253"/>
		<polygon fill="none" stroke="#FFFFFF" stroke-width="0.5" stroke-miterlimit="10" points="41.287,60.438 46.522,55.636 
			53.347,51.881 54.899,58.633 54.719,66.613 48.219,64.338 		"/>
		<polygon fill="none" stroke="#FFFFFF" stroke-width="0.25" stroke-miterlimit="10" points="44.862,60.438 51.578,54.661 
			53.238,63.363 		"/>
		<polygon fill="none" stroke="#FFFFFF" stroke-width="0.5" stroke-miterlimit="10" points="46.522,55.636 48.219,64.338 
			54.899,58.633 		"/>
		<line fill="none" stroke="#FFFFFF" stroke-width="0.5" stroke-miterlimit="10" x1="44.862" y1="52.676" x2="46.522" y2="55.636"/>
		<line fill="none" stroke="#FFFFFF" stroke-width="0.5" stroke-miterlimit="10" x1="46.27" y1="67.407" x2="48.219" y2="64.338"/>
		<line fill="none" stroke="#FFFFFF" stroke-width="0.5" stroke-miterlimit="10" x1="58.293" y1="58.85" x2="54.899" y2="58.633"/>
	</g>
</g>
</svg>
