<?xml version="1.0" standalone="no"?>
<!DOCTYPE svg PUBLIC "-//W3C//DTD SVG 20010904//EN"
 "http://www.w3.org/TR/2001/REC-SVG-20010904/DTD/svg10.dtd">
<svg version="1.0" xmlns="http://www.w3.org/2000/svg"
 width="363.000000pt" height="364.000000pt" viewBox="0 0 363.000000 364.000000"
 preserveAspectRatio="xMidYMid meet">

<g transform="translate(0.000000,364.000000) scale(0.100000,-0.100000)"
fill="#000000" stroke="none">
<path d="M2335 3507 c-129 -34 -229 -125 -312 -283 -129 -249 -198 -619 -221
-1184 l-7 -185 -43 -61 c-23 -33 -42 -64 -42 -69 1 -6 19 -22 40 -37 l40 -28
0 -96 c0 -246 -51 -623 -115 -844 -81 -282 -202 -463 -355 -533 -67 -30 -200
-30 -258 1 -23 12 -42 24 -42 26 0 2 15 13 34 24 86 51 114 167 62 256 -47 80
-153 108 -244 65 -77 -38 -109 -116 -92 -226 23 -140 100 -246 218 -301 48
-22 74 -27 169 -30 94 -4 121 -1 177 18 199 66 365 267 469 571 81 234 126
520 143 904 l6 160 45 62 44 63 -46 32 -46 33 6 145 c28 667 119 1080 279
1267 48 56 125 93 190 93 58 -1 118 -20 147 -46 20 -18 20 -18 -8 -32 -65 -33
-112 -104 -113 -170 0 -40 24 -99 53 -130 84 -91 244 -67 297 44 20 39 22 57
17 122 -5 83 -31 162 -72 223 -35 54 -117 116 -178 134 -72 22 -182 27 -242
12z"/>
</g>
</svg>
