<?xml version="1.0" encoding="UTF-8" standalone="no"?><!DOCTYPE svg PUBLIC "-//W3C//DTD SVG 1.1//EN" "http://www.w3.org/Graphics/SVG/1.1/DTD/svg11.dtd"><svg width="100%" height="100%" viewBox="0 0 273 273" version="1.1" xmlns="http://www.w3.org/2000/svg" xmlns:xlink="http://www.w3.org/1999/xlink" xml:space="preserve" style="fill-rule:evenodd;clip-rule:evenodd;stroke-linejoin:round;stroke-miterlimit:1.41421;"><rect id="画板1" x="0" y="0" width="272.25" height="272.284" style="fill:none;"/><clipPath id="_clip1"><rect x="0" y="0" width="272.25" height="272.284"/></clipPath><g clip-path="url(#_clip1)"><g><path d="M127.947,111.642c-43.069,-46.766 -58.881,-79.85 -44.57,-94.154c4.453,-4.45 9.074,-6.293 14.039,-5.662c-3.714,5.297 -3.22,12.644 1.514,17.372c5.303,5.303 13.902,5.303 19.208,0c5.303,-5.3 5.303,-13.894 0,-19.197c-0.175,-0.172 -0.36,-0.322 -0.538,-0.481c-0.638,-0.647 -9.624,-9.497 -21.91,-9.566c-7.485,-0.041 -14.414,3.072 -20.599,9.253c-11.463,11.456 -11.476,28.678 -0.038,51.185c8.915,17.54 25.124,38.84 48.254,63.462c-69.985,-1.716 -108.27,-14.131 -108.27,-35.409c0,-6.294 1.964,-10.863 5.922,-13.922c1.116,6.369 6.667,11.212 13.361,11.212c7.501,0 13.583,-6.078 13.583,-13.575c0,-7.497 -6.082,-13.572 -13.583,-13.572c-0.244,0 -0.481,0.022 -0.722,0.035c-0.907,-0.003 -13.527,0.09 -22.26,8.722c-5.322,5.259 -8.02,12.359 -8.02,21.1c0,16.203 12.175,28.39 36.19,36.222c19.755,6.443 48.209,10.109 84.724,10.934l2.989,-4.284c0.141,-6.832 0.385,-13.385 0.726,-19.675Z" style="fill:#dcddde;fill-rule:nonzero;"/><path d="M236.901,141.263c-17.898,-9.303 -42.743,-14.862 -74.043,-16.6c44.592,-40.165 76.163,-54.631 90.046,-40.756c4.453,4.453 6.298,9.072 5.666,14.028c-5.3,-3.712 -12.651,-3.212 -17.382,1.516c-5.306,5.303 -5.306,13.897 0,19.197c5.303,5.3 13.902,5.3 19.205,0c0.172,-0.172 0.325,-0.356 0.488,-0.538c0.644,-0.637 9.499,-9.618 9.568,-21.897c0.041,-7.478 -3.074,-14.406 -9.258,-20.587c-11.463,-11.456 -28.695,-11.469 -51.215,-0.038c-15.478,7.86 -33.892,21.4 -54.926,40.341c-0.225,4.756 -0.406,9.663 -0.519,14.766l3.043,2.118l5.303,3.694c46.302,3.003 91.907,15.813 91.907,44.66c0,6.943 -2.13,11.387 -4.916,14.246c-1.451,-5.94 -6.791,-10.353 -13.179,-10.353c-7.502,0 -13.583,6.078 -13.583,13.575c0,7.497 6.081,13.572 13.583,13.572c0.265,0 0.525,-0.022 0.785,-0.037l0,0.065c0.29,0 29.029,-0.472 29.029,-31.068c0,-9.157 -3.846,-26.519 -29.602,-39.904Z" style="fill:#dcddde;fill-rule:nonzero;"/><path d="M123.876,149.729l-2.452,-1.703c-36.171,33.597 -81.841,61.541 -103.648,39.747c-4.912,-4.91 -6.551,-9.56 -6.604,-13.55c5.228,3.175 12.129,2.522 16.644,-1.994c5.303,-5.3 5.307,-13.894 0,-19.197c-5.303,-5.3 -13.902,-5.3 -19.208,0c-0.187,0.188 -0.35,0.388 -0.528,0.585l-0.047,-0.047c-0.203,0.206 -20.19,20.85 1.457,42.484c6.479,6.475 21.481,16.031 49.166,7.294c20.343,-6.419 43.222,-21.303 68.153,-44.278c0.087,-2.388 0.159,-4.775 0.197,-7.16l-3.13,-2.181Z" style="fill:#dcddde;fill-rule:nonzero;"/><path d="M154.212,156.292c30.465,34.771 53.432,75.856 33.092,96.187c-4.916,4.909 -9.565,6.547 -13.558,6.597c3.176,-5.222 2.52,-12.119 -1.995,-16.631c-5.307,-5.303 -13.905,-5.303 -19.208,0c-5.304,5.3 -5.304,13.893 0,19.193c0.187,0.188 0.39,0.354 0.584,0.529l-0.047,0.046c0.207,0.207 20.859,20.182 42.51,-1.453c6.478,-6.475 16.04,-21.468 7.298,-49.137c-6.367,-20.156 -21.072,-42.81 -43.726,-67.475l-4.85,6.959c-0.018,1.753 -0.062,3.466 -0.1,5.185Z" style="fill:#dcddde;fill-rule:nonzero;"/><path d="M146.664,134.704c1.204,-73.366 13.711,-113.591 35.54,-113.591c6.3,0 10.872,1.963 13.933,5.916c-6.373,1.119 -11.219,6.666 -11.219,13.353c0,7.497 6.078,13.575 13.58,13.575c7.501,0 13.583,-6.078 13.583,-13.575c0,-0.244 -0.025,-0.481 -0.038,-0.722c0.006,-0.906 -0.088,-13.515 -8.724,-22.247c-5.262,-5.315 -12.366,-8.015 -21.115,-8.015c-16.213,0 -28.404,12.172 -36.24,36.169c-6.654,20.381 -10.341,50.053 -11.004,88.259l-6.635,9.519l6.507,4.528c-0.191,52.356 -12.151,112.847 -45.401,112.847c-6.948,0 -11.395,-2.132 -14.256,-4.916c5.941,-1.447 10.356,-6.787 10.356,-13.172c0,-7.497 -6.078,-13.575 -13.579,-13.575c-7.502,0 -13.583,6.078 -13.583,13.575c0,0.266 0.025,0.525 0.04,0.788l-0.065,0c0.003,0.287 0.469,29.009 31.087,29.009c9.161,0 26.531,-3.844 39.929,-29.584c11.226,-21.582 16.998,-53.282 17.182,-94.207l6.582,-9.44l-6.46,-4.494Z" style="fill:#1890ff;fill-rule:nonzero;"/></g></g></svg>