<?xml version="1.0" encoding="UTF-8" standalone="no"?>
<svg width="35px" height="32px" viewBox="0 0 35 32" version="1.1" xmlns="http://www.w3.org/2000/svg" xmlns:xlink="http://www.w3.org/1999/xlink">
    <!-- Generator: Sketch 3.8.3 (29802) - http://www.bohemiancoding.com/sketch -->
    <title>Page 1</title>
    <desc>Created with Sketch.</desc>
    <defs></defs>
    <g id="Page-1" stroke="none" stroke-width="1" fill="none" fill-rule="evenodd">
        <g id="Artboard-17" transform="translate(-148.000000, -142.000000)" stroke="#FFFFFF">
            <g id="Page-1" transform="translate(149.000000, 143.000000)">
                <polygon id="Stroke-1" stroke-width="0.5" points="25.4192874 27.5340455 9.41661566 29.0095 0.194363131 16.0658636 6.90768131 1.64722727 22.8427924 0.172227273 32.132146 13.1154091"></polygon>
                <polygon id="Stroke-3" stroke-width="0.5" points="9.41643182 29.0095455 6.90749747 15.9322727 6.90749747 1.64727273 19.2490278 5.20181818 32.1324217 13.1154545 22.571447 21.4986364"></polygon>
                <path d="M19.5199136,4.86668182 C19.7818833,4.86668182 19.9946763,5.07668182 19.9946763,5.33622727 C19.9946763,5.59531818 19.7818833,5.80531818 19.5199136,5.80531818 C19.2579439,5.80531818 19.045151,5.59531818 19.045151,5.33622727 C19.045151,5.07668182 19.2579439,4.86668182 19.5199136,4.86668182 L19.5199136,4.86668182 Z" id="Stroke-4" stroke-width="1.38"></path>
                <path d="M22.6392374,21.0292273 C22.9012071,21.0292273 23.114,21.2392273 23.114,21.4983182 C23.114,21.7578636 22.9012071,21.9683182 22.6392374,21.9683182 C22.3768081,21.9683182 22.1644747,21.7578636 22.1644747,21.4983182 C22.1644747,21.2392273 22.3768081,21.0292273 22.6392374,21.0292273 L22.6392374,21.0292273 Z" id="Stroke-6" stroke-width="1.38"></path>
                <path d="M9.55201263,28.5399091 C9.81398232,28.5399091 10.0267753,28.7503636 10.0267753,29.0094545 C10.0267753,29.269 9.81398232,29.479 9.55201263,29.479 C9.29004293,29.479 9.07725,29.269 9.07725,29.0094545 C9.07725,28.7503636 9.29004293,28.5399091 9.55201263,28.5399091 L9.55201263,28.5399091 Z" id="Stroke-8" stroke-width="1.38"></path>
                <path d="M6.90749747,15.5964545 C7.16946717,15.5964545 7.3822601,15.8069091 7.3822601,16.066 C7.3822601,16.3255455 7.16946717,16.5355455 6.90749747,16.5355455 C6.64552778,16.5355455 6.43273485,16.3255455 6.43273485,16.066 C6.43273485,15.8069091 6.64552778,15.5964545 6.90749747,15.5964545 L6.90749747,15.5964545 Z" id="Stroke-10" stroke-width="1.38"></path>
                <path d="M32.1323298,12.6459091 C32.3947591,12.6459091 32.6070924,12.8559091 32.6070924,13.1154545 C32.6070924,13.3745455 32.3947591,13.5845455 32.1323298,13.5845455 C31.8703601,13.5845455 31.6575672,13.3745455 31.6575672,13.1154545 C31.6575672,12.8559091 31.8703601,12.6459091 32.1323298,12.6459091 L32.1323298,12.6459091 Z" id="Stroke-12" stroke-width="1.38"></path>
                <path d="M6.90749747,1.17818182 C7.16946717,1.17818182 7.3822601,1.38818182 7.3822601,1.64727273 C7.3822601,1.90681818 7.16946717,2.11681818 6.90749747,2.11681818 C6.64552778,2.11681818 6.43273485,1.90681818 6.43273485,1.64727273 C6.43273485,1.38818182 6.64552778,1.17818182 6.90749747,1.17818182 L6.90749747,1.17818182 Z" id="Stroke-14" stroke-width="1.38"></path>
                <polygon id="Stroke-16" stroke-width="0.5" points="0.194455051 16.0660909 10.0265914 7.14654545 22.8424247 0.172 25.7585611 12.7129091 25.4193793 27.5342727 13.2138894 23.3092727"></polygon>
                <polygon id="Stroke-18" stroke-width="0.5" points="6.90749747 16.0660909 19.5197298 5.33609091 22.6394672 21.4983636"></polygon>
                <polygon id="Stroke-20" stroke-width="0.5" points="10.0266374 7.14672727 13.2139354 23.309 25.7586071 12.7130909"></polygon>
                <path d="M6.90749747,1.64736364 L10.0267753,7.14690909" id="Stroke-22" stroke-width="0.5"></path>
                <path d="M9.55201263,29.0095455 L13.2136136,23.3090909" id="Stroke-24" stroke-width="0.5"></path>
                <path id="Stroke-26" stroke-width="0.5"></path>
            </g>
        </g>
    </g>
</svg>