<?xml version="1.0" encoding="UTF-8" standalone="no"?>
<svg width="18px" height="12px" viewBox="0 0 18 12" version="1.1" xmlns="http://www.w3.org/2000/svg" xmlns:xlink="http://www.w3.org/1999/xlink">
    <!-- Generator: Sketch 39 (31667) - http://www.bohemiancoding.com/sketch -->
    <title>Group</title>
    <desc>Created with Sketch.</desc>
    <defs></defs>
    <g id="Page-1" stroke="none" stroke-width="1" fill="none" fill-rule="evenodd">
        <g id="Chain-Main" transform="translate(-950.000000, -230.000000)" fill="#FFFFFF">
            <g id="Group" transform="translate(958.513060, 237.188626) rotate(23.000000) translate(-958.513060, -237.188626) translate(950.513060, 231.688626)">
                <path d="M5.17400002,2.75 C3.74545862,2.75 2.58700001,3.98145 2.58700001,5.5 C2.58700001,7.01855 3.74545862,8.25 5.17400002,8.25 C6.60254143,8.25 7.76100004,7.01855 7.76100004,5.5 C7.76100004,3.98145 6.60254143,2.75 5.17400002,2.75 L5.17400002,2.75 Z M5.17400002,6.6 C4.60227302,6.6 4.13920002,6.1072 4.13920002,5.5 C4.13920002,4.8928 4.60227302,4.4 5.17400002,4.4 C5.74520963,4.4 6.20880003,4.8928 6.20880003,5.5 C6.20880003,6.1072 5.74520963,6.6 5.17400002,6.6 L5.17400002,6.6 Z" id="Shape"></path>
                <path d="M15.0672055,0.48345 C14.7862573,0.18535 14.3982073,0 13.9698001,0 L5.17400002,0 C3.74545862,0 2.45195861,0.61545 1.51546461,1.61095 C0.578970603,2.6059 1.13686838e-13,3.9809 1.13686838e-13,5.5 C1.13686838e-13,7.0191 0.578970603,8.3941 1.51546461,9.38905 C2.45195861,10.38455 3.74545862,11 5.17400002,11 C6.60254143,11 7.89397184,10.38235 8.83253544,9.38905 L8.83253544,9.38905 C8.83357024,9.38795 8.83408764,9.3874 8.83460504,9.3863 C10.3924964,7.7374 15.0666881,2.81655 15.0666881,2.81655 C15.3486711,2.51845 15.5220001,2.10595 15.5220001,1.65 C15.5220001,1.19405 15.3486711,0.78155 15.0672055,0.48345 L15.0672055,0.48345 Z M8.10300144,8.6086 L8.10248404,8.60915 C7.31603604,9.44185 6.27606203,9.9 5.17400002,9.9 C4.06831622,9.9 3.02885961,9.4424 2.24706821,8.61135 C1.46527681,7.7803 1.0348,6.67535 1.0348,5.5 C1.0348,4.32465 1.46527681,3.2197 2.24706821,2.38865 C3.02885961,1.5576 4.06831622,1.1 5.17400002,1.1 C6.23415263,1.1 7.29378783,1.53065 8.10093184,2.38865 C9.71366765,4.10355 9.71418505,6.89315 8.10300144,8.6086 L8.10300144,8.6086 Z M10.2869468,6.30355 C10.5166725,4.64145 10.0360078,2.89025 8.83253544,1.6104 C8.65454984,1.42175 8.46466404,1.25565 8.26908684,1.1 L12.5117669,1.1 C12.3182593,1.6808 12.4351917,2.3518 12.8723947,2.81655 C12.9996751,2.95185 13.1455819,3.05195 13.2987323,3.1306 C12.4941753,3.97705 11.3434777,5.1898 10.2869468,6.30355 L10.2869468,6.30355 Z M13.9698001,2.2 C13.6841953,2.2 13.4524001,1.9536 13.4524001,1.65 C13.4524001,1.3464 13.6841953,1.1 13.9698001,1.1 C14.2554049,1.1 14.4872001,1.3464 14.4872001,1.65 C14.4872001,1.9536 14.2554049,2.2 13.9698001,2.2 L13.9698001,2.2 Z" id="Shape"></path>
            </g>
        </g>
    </g>
</svg>