<?xml version="1.0" encoding="UTF-8" standalone="yes"?>
<!DOCTYPE svg PUBLIC "-//W3C//DTD SVG 1.1//EN" "http://www.w3.org/Graphics/SVG/1.1/DTD/svg11.dtd">

<svg width="500" height="500" viewBox="0 0 500 500" xmlns="http://www.w3.org/2000/svg" xmlns:xlink="http://www.w3.org/1999/xlink" version="1.1" baseProfile="full">
    <g transform="scale(1,-1) translate(0,-500)">
        <path d="M 361.000000 571.200000 L 327.400000 604.800000 L 293.800000 571.200000 L 293.800000 535.200000 L 327.400000 501.600000 L 361.000000 535.200000 Z M 288.200000 644.000000 L 77.000000 644.000000 L 44.200000 610.400000 L 77.800000 576.800000 L 288.200000 576.800000 L 321.800000 610.400000 Z M 71.400000 571.200000 L 37.800000 604.800000 L 5.000000 571.200000 L 5.800000 328.000000 L 36.200000 328.000000 L 71.400000 363.200000 Z M 71.400000 284.800000 L 36.200000 320.000000 L 5.000000 320.000000 L 5.800000 76.800000 L 38.600000 43.200000 L 71.400000 76.800000 Z M 288.200000 71.200000 L 77.800000 71.200000 L 44.200000 37.600000 L 77.800000 4.000000 L 288.200000 4.000000 L 321.800000 37.600000 Z M 360.200000 112.800000 L 326.600000 146.400000 L 293.800000 112.800000 L 294.600000 76.800000 L 327.400000 43.200000 L 361.000000 76.800000 Z" transform="scale(0.500000,0.500000) translate(-5.000000,176.000000)" fill="#4476ff" opacity="1.000000"></path>
        <path d="M 96.904265 224.621783 Q 82.953415 208.751090 79.369710 181.617326 L 192.768368 181.617326 Q 190.976516 210.542943 175.233812 225.517709 Q 159.491109 240.492475 136.197028 240.492475 Q 110.855116 240.492475 96.904265 224.621783 Z M 198.911862 287.592595 Q 226.813563 274.537671 244.988066 246.379990 Q 261.370716 221.550036 266.234316 188.784735 Q 269.050084 169.586317 268.538126 133.493290 L 77.577857 133.493290 Q 79.113731 91.512749 103.943685 74.618140 Q 119.046441 64.123005 140.292691 64.123005 Q 162.818835 64.123005 176.897675 76.921951 Q 184.577043 83.833381 190.464558 96.120369 L 264.954421 96.120369 Q 262.138653 71.290415 239.100551 45.692523 Q 203.263503 4.991876 138.756817 4.991876 Q 85.513204 4.991876 44.812557 39.293051 Q 4.111910 73.594225 4.111910 150.899856 Q 4.111910 223.341888 40.844884 261.994704 Q 77.577857 300.647520 136.197028 300.647520 Q 171.010160 300.647520 198.911862 287.592595 Z M 392.175940 14.207117 L 319.221951 14.207117 L 319.221951 391.520034 L 392.175940 391.520034 Z M 537.827941 14.207117 L 464.873951 14.207117 L 464.873951 391.520034 L 537.827941 391.520034 Z M 783.311718 88.441002 Q 800.462305 111.223125 800.462305 153.203666 Q 800.462305 195.184208 783.311718 217.838342 Q 766.161131 240.492475 734.163767 240.492475 Q 702.166403 240.492475 684.887826 217.838342 Q 667.609250 195.184208 667.609250 153.203666 Q 667.609250 111.223125 684.887826 88.441002 Q 702.166403 65.658878 734.163767 65.658878 Q 766.161131 65.658878 783.311718 88.441002 Z M 841.674910 48.124323 Q 806.349820 4.479918 734.419746 4.479918 Q 662.489672 4.479918 627.164582 48.124323 Q 591.839492 91.768728 591.839492 153.203666 Q 591.839492 213.614690 627.164582 257.899041 Q 662.489672 302.183393 734.419746 302.183393 Q 806.349820 302.183393 841.674910 257.899041 Q 877.000000 213.614690 877.000000 153.203666 Q 877.000000 91.768728 841.674910 48.124323 Z" transform="scale(0.500000,0.500000) translate(123.000000,340.000000)" fill="#ffffff" opacity="1.000000"></path>
    </g>
</svg>